<svg id="Layer_1" data-name="Layer 1" xmlns="http://www.w3.org/2000/svg" xmlns:xlink="http://www.w3.org/1999/xlink" viewBox="0 0 1279.73 1234.65" width="406" height="306" class="illustration"><defs><linearGradient id="linear-gradient" x1="539.75" y1="514.32" x2="545.84" y2="889.33" gradientUnits="userSpaceOnUse"><stop offset="0.01"></stop><stop offset="0.08" stop-opacity="0.69"></stop><stop offset="0.21" stop-opacity="0.32"></stop><stop offset="1" stop-opacity="0"></stop></linearGradient><linearGradient id="linear-gradient-2" x1="603.07" y1="600.2" x2="610.47" y2="365.2" xlink:href="#linear-gradient"></linearGradient><linearGradient id="linear-gradient-3" x1="519.3" y1="473.64" x2="474.41" y2="458.57" xlink:href="#linear-gradient"></linearGradient><linearGradient id="linear-gradient-4" x1="583.24" y1="485.24" x2="616.65" y2="450.18" xlink:href="#linear-gradient"></linearGradient><linearGradient id="linear-gradient-5" x1="534.44" y1="469.76" x2="567.51" y2="446.76" xlink:href="#linear-gradient"></linearGradient><linearGradient id="linear-gradient-6" x1="1206.74" y1="487.46" x2="1244" y2="448.38" gradientTransform="matrix(-1, 0, 0, 1, 1836.02, 0)" xlink:href="#linear-gradient"></linearGradient><linearGradient id="linear-gradient-7" x1="1214.73" y1="503.76" x2="1247.8" y2="480.76" gradientTransform="matrix(-1, 0, 0, 1, 1777.69, -34)" xlink:href="#linear-gradient"></linearGradient><linearGradient id="linear-gradient-8" x1="528.78" y1="428.84" x2="556.71" y2="641.89" xlink:href="#linear-gradient"></linearGradient><linearGradient id="linear-gradient-9" x1="541.28" y1="434.54" x2="554.29" y2="467.68" xlink:href="#linear-gradient"></linearGradient><clipPath id="clip-path" transform="translate(-58.33 -34)"><path d="M1164.13,428.21c7.36,5.79,73.24,7.66,79.11,15.07,25,31.59,41.06,150,54.45,210.6,15.33,69.38-17.5,247.43-65.63,299.7-27.91,30.32-75.44,71-118.81,85.05-147.56,47.91-301.78-17-451.86-30.81C553,997.84,501.9,1023.88,426,1033.91c-75.1,9.92-145.92,18.08-218.67-11.73C152.08,999.54,107,947.62,81.34,884c-36.28-89.85,5.17-175.44,8.81-240.54,6.89-122.79,9-286.34,83-390,38-53.2,95.72-89,155.35-115.74,78.8-35.34,163-50.18,248.6-56.47,41.47-3,82.67-8.14,122.68,1.64,48.6,11.9,96.89,34.6,144,51.44,52.74,18.84,107.72,39.13,145.37,80.58,45.48,50.07,59.46,124.62,110.7,168.8C1119.56,400.68,1143.88,412.27,1164.13,428.21Z" fill="none"></path></clipPath><linearGradient id="linear-gradient-10" x1="589.82" y1="491.51" x2="584.11" y2="423.25" xlink:href="#linear-gradient"></linearGradient></defs><title>2</title><path d="M1291,767.3c-6.75,41.55-48,234.8-198.67,275.89-114,31.11-434.11-75.56-616.61-21.91-367.09,107.91-434.32-181.8-413.81-260C76.22,706.68,93.86,652,94.33,595c.49-59.59-20.39-118.17-22.67-178.18C65.89,265,172.57,115.88,318.17,72.33c62.31-18.64,113.25-37.64,178.3-38.2,132-1.13,445.2,0,599.48,224.43,27.57,40.12,67.61,70.11,98.37,107.84,41.2,50.54,68.36,111.49,84.87,174.57C1298.42,614.5,1303.18,692.45,1291,767.3Z" transform="translate(-58.33 -34)" fill="#68e1fd" opacity="0.18" style="isolation: isolate;"></path><rect x="824.61" y="533.94" width="8.4" height="163.85" fill="#68e1fd"></rect><rect x="634.97" y="243.93" width="393.93" height="290.01" fill="#68e1fd" opacity="0.18" style="isolation: isolate;"></rect><rect x="646.25" y="255.84" width="373.53" height="268.97" fill="#fff"></rect><rect x="626.89" y="518.82" width="417.63" height="15.12" fill="#68e1fd"></rect><rect x="626.89" y="240.72" width="417.63" height="15.12" fill="#68e1fd"></rect><rect x="477.59" y="565.09" width="130.28" height="265.43" fill="#fff"></rect><rect x="477.59" y="565.09" width="130.28" height="265.43" fill="#68e1fd"></rect><rect x="477.59" y="565.09" width="130.28" height="265.43" fill="url(#linear-gradient)"></rect><rect x="502.78" y="565.09" width="80.51" height="303.53" fill="#68e1fd"></rect><rect x="462.2" y="511.66" width="161.03" height="60.81" fill="#68e1fd"></rect><path d="M577.13,419.58c.16-2.34,0-4.77.26-7.11a24.08,24.08,0,0,1,10-17,28,28,0,0,1,19.3-4.77c11,1.27,20.28,8.85,25.58,18.36,6,10.83.4,19.72-4.48,29.55-3.65,7.36-1.51,16.54,3.24,23.25,3.72,5.26,9.2,10.29,8.73,16.72-.28,3.9-2.78,7.24-5.19,10.32-1.6,2.06-3.41,4.26-6,4.85a10.55,10.55,0,0,1-3.88,0,68.74,68.74,0,0,1-8.52-1.72c-2.73-.73-5.52-1.63-8.33-1.27-4.72.61-8.22,4.59-11,8.5s-5.43,8.22-9.78,10.16c-3.3,1.48-7.07,1.34-10.67,1-10.52-.87-21.67-3.32-28.9-11a48.86,48.86,0,0,1-4.39-5.63,13.19,13.19,0,0,1-2-3.41c-1.25-3.67.76-7.62,3-10.76s5-6.3,5.37-10.16c.29-3-.91-6-1.31-9-.76-5.7,1.46-11.51,5-16.06s8.27-8,13.13-11.09c3.73-2.37,7.8-4.82,9.57-8.87A14.69,14.69,0,0,0,577.13,419.58Z" transform="translate(-58.33 -34)" fill="#fc682d"></path><path d="M569.34,503.92c-2.91,3.28-9.3,12.62-9.43,14.4-.13,1.49,1,4.8,1.46,6.23a45.83,45.83,0,0,0,4.6,10.28c1.62,2.66,3.73,6.42,6.2,8.33a16.35,16.35,0,0,0,5.54,2.5H560.26c-8.62-9.79-21-24-21.53-25.82a7.93,7.93,0,0,1,.65-5.57,23.25,23.25,0,0,1,3.24-4.74c4.8-5.93,15.66-19.33,16.54-19.75a6.92,6.92,0,0,1,2.56-.52q11.24-.78,22.48-.45C581.47,491,571.74,501.23,569.34,503.92Z" transform="translate(-58.33 -34)" fill="#f4dbbd"></path><path d="M590.79,457.42s-21.77,9.81-23,12.38,0,75.87,0,75.87h76.72l-4.41-77.24-22.44-9.19Z" transform="translate(-58.33 -34)" fill="#68e1fd"></path><path d="M644.47,545.68H567.73s-1.28-73.29,0-75.89,23.06-12.37,23.06-12.37l26.81,1.81L640,468.42l2.13,37.08Z" transform="translate(-58.33 -34)" fill="url(#linear-gradient-2)"></path><path d="M567.74,469.8l-18.28,23.28c3.67,10.87,18.28,24.66,18.28,24.66Z" transform="translate(-58.33 -34)" fill="#68e1fd"></path><polygon points="509.41 456.9 497.99 470.95 509.41 483.74 509.41 456.9" fill="url(#linear-gradient-3)"></polygon><path d="M591.34,447c.75,3.94-.41,7-.56,10.58-.23,5.38,5.46,13.79,7.72,18.69.73,1.6,1.6,3.32,3.2,4a7.55,7.55,0,0,0,3.54.36,10.62,10.62,0,0,0,5.12-1.17c2.06-1.3,2.95-3.8,3.68-6.13,1.17-3.74,4.14-9.75,3.42-13.64-.23-1.26-1.36-2.51-1.67-3.88a23.24,23.24,0,0,1-.29-5.34C615.59,441.05,591.34,447,591.34,447Z" transform="translate(-58.33 -34)" fill="#f4dbbd"></path><path d="M591.34,447s3.09,16.5,12.86,15.52a12.42,12.42,0,0,0,11.33-9.6Z" transform="translate(-58.33 -34)" fill="#e0be99"></path><path d="M590.48,444.15a24.14,24.14,0,0,0,3,7.44c4,5.86,13.1,7.65,19.12,3.77,3.36-2.16,5.59-5.65,7.22-9.23a43.6,43.6,0,0,0,3.39-24.82c-.51-3.24-1.45-6.53-3.62-9-3.57-4.12-9.65-5.18-15.16-4.89-4.94.26-10,1.49-13.79,4.65a14.84,14.84,0,0,0-4.62,14.48C587.51,432.38,588.89,438.32,590.48,444.15Z" transform="translate(-58.33 -34)" fill="#f4dbbd"></path><path d="M702.82,460.46c.36-.57,1.08-1.19,1.59-.76a1.17,1.17,0,0,1,.32.74,16.83,16.83,0,0,1-.49,7.66,96.31,96.31,0,0,1,9.33-15c.63-.82,1.62-1.73,2.55-1.27a22,22,0,0,1-3.91,10.83,23.88,23.88,0,0,1,7.34-9.72c.66,4.1-1.44,8.08-3.46,11.7A31.81,31.81,0,0,1,722,457.1c.87,1.26.16,3-.56,4.33l-3.88,7.26a25.09,25.09,0,0,1,5.11-6.35c.57,1.19-.13,2.58-.81,3.72l-7.05,11.82a24.6,24.6,0,0,1-3.72,5.18c-1.29,1.27-2.92,2.1-4.23,3.32S676,517.22,673.39,518.16a8.08,8.08,0,0,1-5.62-.34,23.88,23.88,0,0,1-4.91-3c-6.19-4.46-20.16-14.54-20.65-15.39a6.74,6.74,0,0,1-.67-2.54,221.23,221.23,0,0,1-1.71-22.41c2.28,2.61,13.1,11.72,15.93,14,3.43,2.74,13.1,8.59,14.9,8.62,1.5,0,4.74-1.3,6.14-1.82a46.17,46.17,0,0,0,10-5.19c2.56-1.75,6.18-4.08,8-6.64,2.07-3,2.53-8.08,3.52-11.52A49.53,49.53,0,0,1,702.82,460.46Z" transform="translate(-58.33 -34)" fill="#f4dbbd"></path><path d="M586.17,428.6a2.35,2.35,0,0,0-3.72,1.5,9,9,0,0,0,1.33,6.5,4.81,4.81,0,0,0,1.14,1.47,5.55,5.55,0,0,0,3.23.85,1.77,1.77,0,0,0,.76-.06,1.52,1.52,0,0,0,.53-.41,4.34,4.34,0,0,0,.89-3.26C590.09,432.66,588.6,429.66,586.17,428.6Z" transform="translate(-58.33 -34)" fill="#f4dbbd"></path><path d="M624.1,438.43a2.77,2.77,0,0,1-3.21-.4,2.84,2.84,0,0,1-.51-1.1,9,9,0,0,1,1.33-6.5,4.85,4.85,0,0,1,1.14-1.47,5.68,5.68,0,0,1,3.23-.86,2,2,0,0,1,.77.07,1.46,1.46,0,0,1,.52.41,4.29,4.29,0,0,1,.9,3.26C628,434.37,626.53,437.37,624.1,438.43Z" transform="translate(-58.33 -34)" fill="#f4dbbd"></path><path d="M584.15,434.33a5,5,0,0,0,1.51,2,1.79,1.79,0,0,0,2.11.12.68.68,0,0,0,.25-.33,1,1,0,0,0-.09-.64l-.15-.4a1.26,1.26,0,0,0-.16-.33c-.28-.37-.85-.31-1.25-.54s-.58-.8-.81-1.21a1.08,1.08,0,0,0-.94-.65.88.88,0,0,0-.72.81A2.15,2.15,0,0,0,584.15,434.33Z" transform="translate(-58.33 -34)" fill="#e0be99"></path><path d="M626.6,433.53a4.92,4.92,0,0,1-1.5,2,1.81,1.81,0,0,1-2.11.13.71.71,0,0,1-.25-.34,1,1,0,0,1,.09-.64l.15-.4a1.26,1.26,0,0,1,.16-.33c.28-.36.85-.31,1.25-.53s.58-.81.81-1.22a1.07,1.07,0,0,1,.94-.65.88.88,0,0,1,.72.81A2.14,2.14,0,0,1,626.6,433.53Z" transform="translate(-58.33 -34)" fill="#e0be99"></path><path d="M590.79,457.42l-5.11,2.37,2.55,23.65,13.51,5.27S596.06,471.32,590.79,457.42Z" transform="translate(-58.33 -34)" fill="url(#linear-gradient-4)"></path><polygon points="534.2 451.12 532.46 460.19 548.89 478.54 543.41 454.71 534.2 451.12" fill="url(#linear-gradient-5)"></polygon><path d="M617.79,459.37l5.12,2.36,2.91,21.71-13.5,5.27S617.61,466.8,617.79,459.37Z" transform="translate(-58.33 -34)" fill="url(#linear-gradient-6)"></path><polygon points="563.2 451.12 564.94 460.19 548.51 478.54 553.99 454.71 563.2 451.12" fill="url(#linear-gradient-7)"></polygon><polygon points="569.84 511.4 519.17 502.36 509.41 456.9 509.41 507.5 509.41 511.67 569.84 511.4" fill="url(#linear-gradient-8)"></polygon><path d="M561.26,545.8c0-.61-4.64-61.64,39.51-70.29l.57,2.86c-41.59,8.15-37.22,66.6-37.17,67.19Z" transform="translate(-58.33 -34)" fill="#68e1fd"></path><circle cx="544.34" cy="442.34" r="3.77" fill="#68e1fd"></circle><circle cx="544.34" cy="442.34" r="3.77" fill="url(#linear-gradient-9)"></circle><g clip-path="url(#clip-path)"><path d="M1309.14,769.91s21,.61,25,9.13,4,67.13,4,67.13H1248s-2.07-61.76,2.15-67.43S1309.14,769.91,1309.14,769.91Z" transform="translate(-58.33 -34)" fill="#68e1fd"></path><path d="M1282.64,685.23a17.23,17.23,0,0,1,12.9,1.18c2.13,1.14,3,3.34,4.77,4.54,1.48,1,4-.16,5.22,1.63,1.43,2.1,2.4,5.55,3.53,7.91,1.45,3,2.76,6.12,3.94,9.26a129.8,129.8,0,0,1,5.54,19.37,168.81,168.81,0,0,1,3.06,39.82c-.28,8-1,16.15-4.08,23.56-3.32,8.11-18.68,5.77-25.45,5.67q-17.73-.28-35.4-1.82a329,329,0,0,1,1.55-78.08c.8-5.76,1.8-11.61,4.6-16.7C1266.61,694.67,1274.34,687.48,1282.64,685.23Z" transform="translate(-58.33 -34)" fill="#473f47"></path><path d="M1224.52,708.89s21,.61,25,9.13,4,64.84,4,64.84h-90.1s-2.07-59.46,2.15-65.14S1224.52,708.89,1224.52,708.89Z" transform="translate(-58.33 -34)" fill="#fff"></path><path d="M1212.65,913.44s-3.93-131.91-7-136.4-28.63-13.75-60.34-11.51S1104,777,1104,777l-8.14,136.4Z" transform="translate(-58.33 -34)" fill="#68e1fd"></path><path d="M1188.54,843.8s-16,7.24-17.79,12.72-6.29,56.92-6.29,56.92H1289s-6.85-59.2-11.87-64.22S1215,837.47,1188.54,843.8Z" transform="translate(-58.33 -34)" fill="#fff"></path><path d="M1245.53,758.19c1,.15,2,0,3.07.15a6.59,6.59,0,0,1,5.33,4.34,12,12,0,0,0,.81,2.37,14.9,14.9,0,0,0,1.85,2.05,5.33,5.33,0,0,1,.61,5.82,8,8,0,0,1,4.07,6.51c0,1-.12,2.08,0,3.12.29,3.24,2.94,5.71,4.31,8.66a12,12,0,0,1-5.7,15.39,10,10,0,0,1,.32,13.82c2.78,2.26,5.66,4.66,7,8s.6,7.79-2.58,9.42a8,8,0,0,1-6.12,13.44A10.09,10.09,0,0,1,1247.07,864a44.78,44.78,0,0,1-1,13.21,33.13,33.13,0,0,1-19.25-1.36c-2.55,1.8-5.19,3.65-8.24,4.31s-6.65-.17-8.35-2.79c-1-1.47-1.36-3.48-3-4.19a5.21,5.21,0,0,0-2.15-.31l-11.17,0a3.72,3.72,0,0,1-2.35-.53,3.39,3.39,0,0,1-1-1.86,20.27,20.27,0,0,1-.33-9.26,7.32,7.32,0,0,1-4-9.62,15.87,15.87,0,0,0,1.37-2.85c.39-1.66-.38-3.34-.69-5a9.18,9.18,0,0,1,1.44-6.74,5.92,5.92,0,0,0,1.28-2.34c.16-1.14-.55-2.21-1.13-3.21a15,15,0,0,1-1.16-12c.46-1.4,1.15-2.8,1-4.27a10.56,10.56,0,0,0-.83-2.53,14.9,14.9,0,0,1,.71-12.25,9.51,9.51,0,0,0,1.36-3.12,8.08,8.08,0,0,0-.33-2.83,39.56,39.56,0,0,1-.38-15.52c.51-2.9,1.6-6,4.22-7.38a3.75,3.75,0,0,0,1.5-1,3.38,3.38,0,0,0,.35-1.87,8.61,8.61,0,0,1,9.51-7.94c1.52-6.06,9.53-9.42,14.92-6.25a8,8,0,0,1,6.94-6c4-.33,6.14,3,9.07,4.57S1242.26,757.73,1245.53,758.19Z" transform="translate(-58.33 -34)" fill="#473f47"></path><path d="M1171.71,760.79a2.5,2.5,0,0,0-1.54-.65c-3.24-.48-6.49.52-9.7,1.15-7.51,1.48-15.26.91-22.9.51a1.25,1.25,0,0,0-.58.06,1,1,0,0,0-.46.52,3.55,3.55,0,0,0,.69,3.71,8.47,8.47,0,0,0,3.3,2.16,29,29,0,0,0,5.83,1.74,46.45,46.45,0,0,0,7.55.65c4.67.09,9.51-.11,13.91-1.82a5.12,5.12,0,0,0,3-2.36C1171.58,765.1,1173,762.18,1171.71,760.79Z" transform="translate(-58.33 -34)" fill="#fff"></path><path d="M1183,699.26a19.68,19.68,0,0,1,2.51,3.88c2.28,4.69,2.82,10,2.89,15.24a33.13,33.13,0,0,1-2.12,13.24c-1.78,4.33-4.72,7.59-7.19,11.56-2.12,3.38-3.66,7.1-5.94,10.38a25.83,25.83,0,0,1-17.87,11,22.23,22.23,0,0,1-19.33-7.5c-2.29-2.76-3.81-6.06-5.67-9.13a90.59,90.59,0,0,1-5-8.26c-2.1-4.49-2.69-9.52-3.07-14.46a56.79,56.79,0,0,1,.31-14.45,23.56,23.56,0,0,1,6.31-12.8,36.13,36.13,0,0,1,7.23-5c4.35-2.54,8.77-5.11,13.65-6.37s10.36-1.06,14.59,1.67c1.82,1.17,3.41,2.67,5.26,3.79s4.07,1.54,6.2,2.28A16.45,16.45,0,0,1,1183,699.26Z" transform="translate(-58.33 -34)" fill="#473f47"></path><path d="M502.64,770.47s21,.61,25,9.13,4,116,4,116h-90.1S439.39,785,443.61,779.3,502.64,770.47,502.64,770.47Z" transform="translate(-58.33 -34)" fill="#68e1fd"></path><path d="M443.61,739.85c-.05-10.64,1.44-21.51,6.28-31,9.81-19.18,35.3-31.69,52.86-14.49,7.83,7.67,11.27,19.27,9.85,30.14-1.17,9-5.41,17.64-4.86,26.7.5,8.26,4.9,15.69,8.55,23.12s6.68,15.93,4.28,23.85c-2.07,6.85-8,12-14.55,14.84s-13.82,3.63-20.95,4.22c-7.3.6-15,1-21.61-2.15-11.53-5.38-10.32-19.89-13-30.51C446.74,770,443.69,755,443.61,739.85Z" transform="translate(-58.33 -34)" fill="#473f47"></path><path d="M1083,913.44s-3.93-131.91-7-136.4-28.63-13.75-60.34-11.51S974.39,777,974.39,777l-8.14,136.4Z" transform="translate(-58.33 -34)" fill="#665966"></path><path d="M1058.89,843.8s-16,7.24-17.78,12.72-6.29,127.34-6.29,127.34h124.55s-6.85-129.62-11.87-134.64S1085.35,837.47,1058.89,843.8Z" transform="translate(-58.33 -34)" fill="#fff"></path><path d="M1115.88,758.19c1,.15,2.06,0,3.08.15a6.59,6.59,0,0,1,5.33,4.34,12,12,0,0,0,.8,2.37,16.31,16.31,0,0,0,1.85,2.05,5.33,5.33,0,0,1,.62,5.82,8,8,0,0,1,4.06,6.51c.05,1-.11,2.08,0,3.12.3,3.24,3,5.71,4.32,8.66a12,12,0,0,1-5.71,15.39,10,10,0,0,1,.33,13.82c2.77,2.26,5.66,4.66,7,8s.61,7.79-2.58,9.42a8,8,0,0,1-6.12,13.44A10.08,10.08,0,0,1,1117.43,864a45.12,45.12,0,0,1-1,13.21,33.17,33.17,0,0,1-19.26-1.36c-2.54,1.8-5.18,3.65-8.23,4.31s-6.65-.17-8.35-2.79c-1-1.47-1.37-3.48-3-4.19a5.13,5.13,0,0,0-2.14-.31l-11.17,0a3.7,3.7,0,0,1-2.35-.53,3.39,3.39,0,0,1-1-1.86,20.14,20.14,0,0,1-.33-9.26,7.31,7.31,0,0,1-4-9.62,15.17,15.17,0,0,0,1.36-2.85c.4-1.66-.38-3.34-.68-5a9.18,9.18,0,0,1,1.44-6.74,5.9,5.9,0,0,0,1.27-2.34c.17-1.14-.55-2.21-1.12-3.21a15,15,0,0,1-1.17-12c.47-1.4,1.16-2.8,1-4.27a10.14,10.14,0,0,0-.83-2.53,14.9,14.9,0,0,1,.72-12.25,9.72,9.72,0,0,0,1.36-3.12,8.08,8.08,0,0,0-.33-2.83,39.56,39.56,0,0,1-.38-15.52c.51-2.9,1.59-6,4.22-7.38a3.82,3.82,0,0,0,1.5-1,3.38,3.38,0,0,0,.34-1.87,8.62,8.62,0,0,1,9.52-7.94c1.52-6.06,9.53-9.42,14.92-6.25a8,8,0,0,1,6.93-6c4-.33,6.15,3,9.07,4.57S1112.62,757.73,1115.88,758.19Z" transform="translate(-58.33 -34)" fill="#cd8809"></path><path d="M1042.06,760.79a2.47,2.47,0,0,0-1.53-.65c-3.24-.48-6.49.52-9.7,1.15-7.52,1.48-15.26.91-22.9.51a1.3,1.3,0,0,0-.59.06,1.11,1.11,0,0,0-.46.52,3.59,3.59,0,0,0,.69,3.71,8.58,8.58,0,0,0,3.31,2.16,28.77,28.77,0,0,0,5.83,1.74,46.42,46.42,0,0,0,7.54.65c4.67.09,9.51-.11,13.92-1.82a5.07,5.07,0,0,0,3-2.36C1041.94,765.1,1043.32,762.18,1042.06,760.79Z" transform="translate(-58.33 -34)" fill="#fff"></path><path d="M1053.32,699.26a18.81,18.81,0,0,1,2.51,3.88c2.28,4.69,2.82,10,2.89,15.24a33,33,0,0,1-2.12,13.24c-1.77,4.33-4.72,7.59-7.19,11.56-2.11,3.38-3.66,7.1-5.94,10.38a25.79,25.79,0,0,1-17.87,11,22.21,22.21,0,0,1-19.32-7.5c-2.3-2.76-3.82-6.06-5.68-9.13a95.35,95.35,0,0,1-5-8.26c-2.1-4.49-2.68-9.52-3.06-14.46a56.79,56.79,0,0,1,.3-14.45,23.62,23.62,0,0,1,6.31-12.8,36.2,36.2,0,0,1,7.24-5c4.35-2.54,8.77-5.11,13.65-6.37s10.35-1.06,14.59,1.67c1.81,1.17,3.4,2.67,5.25,3.79s4.08,1.54,6.21,2.28A16.48,16.48,0,0,1,1053.32,699.26Z" transform="translate(-58.33 -34)" fill="#cd8809"></path><path d="M990.78,837.18s21,.61,25,9.13,4,67.13,4,67.13h-90.1s-2.07-61.76,2.16-67.43S990.78,837.18,990.78,837.18Z" transform="translate(-58.33 -34)" fill="#68e1fd"></path><path d="M964.28,752.5a17.2,17.2,0,0,1,12.89,1.18c2.13,1.14,3,3.34,4.78,4.54,1.47,1,4-.16,5.22,1.63,1.43,2.1,2.39,5.55,3.52,7.91,1.45,3,2.76,6.12,3.94,9.26a127.46,127.46,0,0,1,5.54,19.37,168.81,168.81,0,0,1,3.07,39.82c-.28,8-1,16.15-4.09,23.56-3.32,8.11-18.68,5.77-25.45,5.67q-17.73-.29-35.4-1.82a329.52,329.52,0,0,1,1.55-78.08c.81-5.76,1.81-11.61,4.61-16.7C948.25,761.94,956,754.75,964.28,752.5Z" transform="translate(-58.33 -34)" fill="#473f47"></path><path d="M987.71,833.56s21,.61,25,9.13,4,67.13,4,67.13h-90.1s-2.07-61.75,2.16-67.43S987.71,833.56,987.71,833.56Z" transform="translate(-58.33 -34)" fill="#68e1fd"></path><path d="M961.21,748.88a17.23,17.23,0,0,1,12.9,1.19c2.13,1.13,3,3.33,4.77,4.54,1.48,1,4-.16,5.23,1.63,1.42,2.09,2.39,5.55,3.52,7.9q2.18,4.54,3.94,9.27a128.83,128.83,0,0,1,5.54,19.36,168.94,168.94,0,0,1,3.07,39.83c-.28,8-1,16.14-4.09,23.56-3.32,8.1-18.68,5.77-25.45,5.66q-17.73-.29-35.4-1.82a329.52,329.52,0,0,1,1.55-78.08c.81-5.75,1.81-11.61,4.6-16.7C945.19,758.33,952.91,751.14,961.21,748.88Z" transform="translate(-58.33 -34)" fill="#473f47"></path><path d="M903.09,772.55s21,.6,25,9.13,4,64.83,4,64.83h-90.1s-2.07-59.46,2.16-65.14S903.09,772.55,903.09,772.55Z" transform="translate(-58.33 -34)" fill="#fff"></path><path d="M887.09,690.23c5.32,2.22,8.77,7.39,11.49,12.49,11.71,22,15.47,47.58,14.6,72.51-.28,8-1,16.15-4.09,23.56a7.06,7.06,0,0,1-2.3,3.36,7.77,7.77,0,0,1-4.2.91,447.18,447.18,0,0,1-47.72-1.53c-5.33-19.54-10.7-39.35-10.8-59.61-.05-10.63,1.43-21.5,6.28-31s13.41-17.4,23.8-19.67c6.79-1.48,15.19.34,18.08,6.66" transform="translate(-58.33 -34)" fill="#cd8809"></path><path d="M891.22,977.09s-3.93-131.9-7-136.39-28.63-13.76-60.35-11.51S782.6,840.7,782.6,840.7l-8.14,136.39Z" transform="translate(-58.33 -34)" fill="#665966"></path><path d="M867.11,907.46s-16,7.24-17.78,12.72S843,977.09,843,977.09H967.58s-6.84-59.2-11.87-64.22S893.57,901.13,867.11,907.46Z" transform="translate(-58.33 -34)" fill="#473f47"></path><path d="M924.1,821.85c1,.14,2,0,3.07.14a6.58,6.58,0,0,1,5.33,4.35,13,13,0,0,0,.81,2.37,16.16,16.16,0,0,0,1.85,2,5.31,5.31,0,0,1,.61,5.81,8,8,0,0,1,4.07,6.51c0,1-.11,2.08,0,3.12.3,3.24,2.94,5.71,4.32,8.66a12,12,0,0,1-5.71,15.4,10,10,0,0,1,.32,13.81c2.78,2.26,5.66,4.66,7,8s.61,7.79-2.58,9.43a8,8,0,0,1-6.12,13.43,10.1,10.1,0,0,1-11.43,12.8,45.06,45.06,0,0,1-1,13.2,33,33,0,0,1-19.25-1.36c-2.55,1.81-5.19,3.65-8.24,4.31s-6.65-.17-8.34-2.79c-.95-1.46-1.37-3.47-3-4.19a5.15,5.15,0,0,0-2.14-.3l-11.18,0a3.78,3.78,0,0,1-2.35-.52,3.41,3.41,0,0,1-1-1.87,20.13,20.13,0,0,1-.34-9.26,7.33,7.33,0,0,1-4-9.62,15.78,15.78,0,0,0,1.37-2.84c.4-1.66-.38-3.35-.68-5a9.21,9.21,0,0,1,1.44-6.75,6.06,6.06,0,0,0,1.27-2.33c.17-1.15-.55-2.21-1.12-3.22a15,15,0,0,1-1.17-12c.47-1.4,1.15-2.8,1-4.26a10.49,10.49,0,0,0-.83-2.54,14.87,14.87,0,0,1,.71-12.24,9.6,9.6,0,0,0,1.36-3.12,7.8,7.8,0,0,0-.33-2.83,39.42,39.42,0,0,1-.37-15.53c.51-2.89,1.59-6,4.21-7.37a3.68,3.68,0,0,0,1.5-1,3.4,3.4,0,0,0,.35-1.88,8.6,8.6,0,0,1,9.51-7.93c1.53-6.07,9.53-9.43,14.93-6.26a8,8,0,0,1,6.93-5.94c4-.33,6.14,3,9.07,4.56S920.84,821.39,924.1,821.85Z" transform="translate(-58.33 -34)" fill="#a36a0f"></path><path d="M850.28,824.44a2.48,2.48,0,0,0-1.54-.65c-3.24-.48-6.48.53-9.7,1.16-7.51,1.47-15.25.9-22.9.5a1.27,1.27,0,0,0-.58.07,1,1,0,0,0-.46.52,3.55,3.55,0,0,0,.69,3.71,8.41,8.41,0,0,0,3.31,2.15,28.24,28.24,0,0,0,5.82,1.74,45.45,45.45,0,0,0,7.55.65c4.67.1,9.51-.11,13.91-1.82a5.12,5.12,0,0,0,3-2.36C850.16,828.75,851.54,825.83,850.28,824.44Z" transform="translate(-58.33 -34)" fill="#fff"></path><path d="M861.54,762.92a19,19,0,0,1,2.51,3.88c2.28,4.69,2.82,10,2.89,15.24a33.08,33.08,0,0,1-2.12,13.23c-1.78,4.33-4.72,7.6-7.19,11.56-2.11,3.39-3.66,7.11-5.94,10.38a25.8,25.8,0,0,1-17.87,10.95,22.23,22.23,0,0,1-19.33-7.49c-2.29-2.76-3.81-6.07-5.67-9.14a87.94,87.94,0,0,1-5-8.26c-2.1-4.49-2.69-9.52-3.07-14.46a57.27,57.27,0,0,1,.31-14.45,23.59,23.59,0,0,1,6.31-12.79,36.06,36.06,0,0,1,7.23-5.05c4.35-2.54,8.78-5.1,13.65-6.36s10.36-1.07,14.59,1.66c1.82,1.17,3.41,2.68,5.26,3.79s4.07,1.55,6.2,2.28A16.47,16.47,0,0,1,861.54,762.92Z" transform="translate(-58.33 -34)" fill="#684712"></path><path d="M773.45,772.55s21,.6,25,9.13,4,64.83,4,64.83h-90.1s-2.07-59.46,2.15-65.14S773.45,772.55,773.45,772.55Z" transform="translate(-58.33 -34)" fill="#68e1fd"></path><path d="M757.44,690.23c5.33,2.22,8.78,7.39,11.49,12.49,11.72,22,15.47,47.58,14.6,72.51-.28,8-1,16.15-4.08,23.56a7.06,7.06,0,0,1-2.3,3.36,7.79,7.79,0,0,1-4.2.91,447,447,0,0,1-47.72-1.53c-5.33-19.54-10.71-39.35-10.81-59.61,0-10.63,1.44-21.5,6.28-31s13.41-17.4,23.81-19.67c6.79-1.48,15.19.34,18.08,6.66" transform="translate(-58.33 -34)" fill="#473f47"></path><path d="M249.66,772.55s21,.6,25,9.13,4,140.23,4,140.23h-90.1s-2.07-134.86,2.16-140.54S249.66,772.55,249.66,772.55Z" transform="translate(-58.33 -34)" fill="#68e1fd"></path><path d="M233.66,690.23c5.32,2.22,8.77,7.39,11.49,12.49,11.71,22,15.47,47.58,14.59,72.51-.27,8-1,16.15-4.08,23.56a7.06,7.06,0,0,1-2.3,3.36,7.77,7.77,0,0,1-4.2.91,447.1,447.1,0,0,1-47.72-1.53c-5.33-19.54-10.7-39.35-10.8-59.61-.06-10.63,1.43-21.5,6.27-31s13.42-17.4,23.81-19.67c6.79-1.48,15.19.34,18.08,6.66" transform="translate(-58.33 -34)" fill="#473f47"></path><path d="M409.89,919.71s-3.93-131.9-7-136.39-28.62-13.76-60.34-11.51-41.26,11.51-41.26,11.51l-8.14,136.39Z" transform="translate(-58.33 -34)" fill="#665966"></path><path d="M385.78,850.08s-16,7.24-17.78,12.72-6.29,56.91-6.29,56.91H486.25s-6.85-59.2-11.87-64.22S412.23,843.75,385.78,850.08Z" transform="translate(-58.33 -34)" fill="#473f47"></path><path d="M442.77,764.47c1,.14,2.05,0,3.07.14a6.58,6.58,0,0,1,5.33,4.35,12.64,12.64,0,0,0,.81,2.36,15.58,15.58,0,0,0,1.85,2.06,5.31,5.31,0,0,1,.61,5.81,8,8,0,0,1,4.07,6.51c.05,1-.12,2.08,0,3.12.3,3.24,2.94,5.71,4.32,8.66a12,12,0,0,1-5.71,15.4,10,10,0,0,1,.32,13.81c2.78,2.26,5.66,4.66,7,8s.61,7.79-2.58,9.43a8,8,0,0,1-6.12,13.43,10.1,10.1,0,0,1-11.44,12.8,44.72,44.72,0,0,1-1,13.2A33.05,33.05,0,0,1,424,882.16c-2.55,1.81-5.19,3.65-8.24,4.31s-6.65-.17-8.35-2.79c-.94-1.46-1.36-3.47-2.95-4.19a5.15,5.15,0,0,0-2.14-.3l-11.18,0a3.78,3.78,0,0,1-2.35-.52,3.48,3.48,0,0,1-1-1.87,20.26,20.26,0,0,1-.33-9.26,7.33,7.33,0,0,1-4-9.62,15.78,15.78,0,0,0,1.37-2.84c.4-1.66-.38-3.35-.69-5a9.27,9.27,0,0,1,1.45-6.75,6.06,6.06,0,0,0,1.27-2.33c.17-1.15-.55-2.21-1.13-3.22a15,15,0,0,1-1.16-12c.46-1.4,1.15-2.8,1-4.26a10.49,10.49,0,0,0-.83-2.54,14.87,14.87,0,0,1,.71-12.24,9.6,9.6,0,0,0,1.36-3.12,8,8,0,0,0-.33-2.83,39.61,39.61,0,0,1-.38-15.53c.51-2.89,1.6-6,4.22-7.37a3.86,3.86,0,0,0,1.5-1,3.4,3.4,0,0,0,.35-1.88,8.6,8.6,0,0,1,9.51-7.93c1.52-6.07,9.53-9.43,14.93-6.26a8,8,0,0,1,6.93-5.94c4.05-.33,6.14,3,9.07,4.56S439.51,764,442.77,764.47Z" transform="translate(-58.33 -34)" fill="#cd8809"></path><path d="M369,767.06a2.5,2.5,0,0,0-1.54-.65c-3.24-.48-6.49.53-9.7,1.16-7.51,1.47-15.25.9-22.9.5a1.26,1.26,0,0,0-.58.07,1,1,0,0,0-.46.52,3.55,3.55,0,0,0,.69,3.71,8.41,8.41,0,0,0,3.31,2.15,28.24,28.24,0,0,0,5.82,1.74,45.45,45.45,0,0,0,7.55.65c4.67.1,9.51-.11,13.91-1.82a5.12,5.12,0,0,0,3-2.36C368.82,771.37,370.21,768.45,369,767.06Z" transform="translate(-58.33 -34)" fill="#fff"></path><path d="M380.21,705.54a18.69,18.69,0,0,1,2.51,3.88c2.28,4.69,2.82,10,2.89,15.24a33.11,33.11,0,0,1-2.12,13.23c-1.78,4.33-4.72,7.6-7.19,11.56-2.11,3.38-3.66,7.11-5.94,10.38a25.8,25.8,0,0,1-17.87,10.95,22.23,22.23,0,0,1-19.33-7.49c-2.29-2.76-3.81-6.07-5.67-9.14a87.94,87.94,0,0,1-5-8.26c-2.1-4.49-2.69-9.52-3.07-14.46a57.27,57.27,0,0,1,.31-14.45,23.59,23.59,0,0,1,6.31-12.79,35.77,35.77,0,0,1,7.23-5.05c4.35-2.54,8.78-5.1,13.65-6.36s10.36-1.07,14.59,1.66c1.82,1.17,3.41,2.68,5.26,3.79s4.07,1.55,6.2,2.28A16.47,16.47,0,0,1,380.21,705.54Z" transform="translate(-58.33 -34)" fill="#cd8809"></path><path d="M120,772.55s21,.6,25,9.13,4,141,4,141l-90.1-76.13S56.77,787.05,61,781.37,120,772.55,120,772.55Z" transform="translate(-58.33 -34)" fill="#68e1fd"></path><path d="M104,690.23c5.33,2.22,8.78,7.39,11.49,12.49,11.72,22,15.47,47.58,14.6,72.51-.28,8-1,16.15-4.08,23.56a7.06,7.06,0,0,1-2.3,3.36,7.81,7.81,0,0,1-4.2.91,447,447,0,0,1-47.72-1.53C66.47,782,61.09,762.18,61,741.92c-.05-10.63,1.44-21.5,6.28-31s13.41-17.4,23.81-19.67c6.79-1.48,15.19.34,18.08,6.66" transform="translate(-58.33 -34)" fill="#473f47"></path><path d="M761.58,977.09s-3.93-131.9-7-136.39-28.63-13.76-60.34-11.51S653,840.7,653,840.7l-8.14,136.39Z" transform="translate(-58.33 -34)" fill="#665966"></path><path d="M737.47,907.46s-16,7.24-17.79,12.72-6.29,56.91-6.29,56.91H837.94s-6.85-59.2-11.87-64.22S763.92,901.13,737.47,907.46Z" transform="translate(-58.33 -34)" fill="#473f47"></path><path d="M794.46,821.85c1,.14,2,0,3.07.14a6.58,6.58,0,0,1,5.33,4.35,12.27,12.27,0,0,0,.81,2.37,16.16,16.16,0,0,0,1.85,2,5.31,5.31,0,0,1,.61,5.81,8,8,0,0,1,4.07,6.51c0,1-.12,2.08,0,3.12.29,3.24,2.94,5.71,4.31,8.66a12,12,0,0,1-5.7,15.4,10,10,0,0,1,.32,13.81c2.78,2.26,5.66,4.66,7,8s.61,7.79-2.57,9.43a8,8,0,0,1-6.12,13.43A10.1,10.1,0,0,1,796,927.7a44.72,44.72,0,0,1-1,13.2,33,33,0,0,1-19.25-1.36c-2.55,1.81-5.19,3.65-8.24,4.31s-6.65-.17-8.35-2.79c-.95-1.46-1.36-3.47-2.95-4.19a5.2,5.2,0,0,0-2.15-.3l-11.17,0a3.78,3.78,0,0,1-2.35-.52,3.42,3.42,0,0,1-1-1.87,20.26,20.26,0,0,1-.33-9.26,7.32,7.32,0,0,1-4-9.62,15.78,15.78,0,0,0,1.37-2.84c.39-1.66-.38-3.35-.69-5a9.21,9.21,0,0,1,1.44-6.75,6,6,0,0,0,1.28-2.33c.16-1.15-.56-2.21-1.13-3.22a15,15,0,0,1-1.16-12c.46-1.4,1.15-2.8,1-4.26a10.49,10.49,0,0,0-.83-2.54,14.87,14.87,0,0,1,.71-12.24,9.6,9.6,0,0,0,1.36-3.12,8,8,0,0,0-.33-2.83,39.61,39.61,0,0,1-.38-15.53c.51-2.89,1.6-6,4.22-7.37a3.75,3.75,0,0,0,1.5-1,3.31,3.31,0,0,0,.34-1.88,8.61,8.61,0,0,1,9.52-7.93c1.52-6.07,9.53-9.43,14.92-6.26a8,8,0,0,1,6.94-5.94c4-.33,6.14,3,9.07,4.56S791.19,821.39,794.46,821.85Z" transform="translate(-58.33 -34)" fill="#cd8809"></path><path d="M720.64,824.44a2.5,2.5,0,0,0-1.54-.65c-3.24-.48-6.49.53-9.7,1.16-7.51,1.47-15.26.9-22.9.5a1.26,1.26,0,0,0-.58.07,1,1,0,0,0-.46.52,3.55,3.55,0,0,0,.69,3.71,8.44,8.44,0,0,0,3.3,2.15,28.33,28.33,0,0,0,5.83,1.74,45.36,45.36,0,0,0,7.55.65c4.67.1,9.5-.11,13.91-1.82a5.07,5.07,0,0,0,3-2.36C720.51,828.75,721.9,825.83,720.64,824.44Z" transform="translate(-58.33 -34)" fill="#fff"></path><path d="M731.89,762.92a19,19,0,0,1,2.52,3.88c2.28,4.69,2.82,10,2.89,15.24a33.08,33.08,0,0,1-2.12,13.23c-1.78,4.33-4.72,7.6-7.19,11.56-2.12,3.39-3.66,7.11-5.94,10.38a25.8,25.8,0,0,1-17.87,10.95,22.21,22.21,0,0,1-19.33-7.49c-2.29-2.76-3.81-6.07-5.67-9.14a87.94,87.94,0,0,1-5-8.26c-2.1-4.49-2.69-9.52-3.07-14.46a56.81,56.81,0,0,1,.31-14.45,23.58,23.58,0,0,1,6.3-12.79,36.12,36.12,0,0,1,7.24-5.05c4.35-2.54,8.77-5.1,13.65-6.36s10.36-1.07,14.59,1.66c1.82,1.17,3.41,2.68,5.26,3.79s4.07,1.55,6.2,2.28A16.38,16.38,0,0,1,731.89,762.92Z" transform="translate(-58.33 -34)" fill="#cd8809"></path><path d="M669.35,900.83s21,.61,25,9.13,4,67.13,4,67.13h-90.1s-2.08-61.75,2.15-67.43S669.35,900.83,669.35,900.83Z" transform="translate(-58.33 -34)" fill="#68e1fd"></path><path d="M642.85,816.15a17.16,17.16,0,0,1,12.89,1.19c2.14,1.13,3,3.33,4.78,4.54,1.47,1,4-.16,5.22,1.63,1.43,2.09,2.39,5.55,3.52,7.9q2.18,4.55,4,9.27A128.79,128.79,0,0,1,678.74,860a168.41,168.41,0,0,1,3.07,39.83c-.28,8-1,16.14-4.09,23.56-3.31,8.1-18.67,5.77-25.45,5.66q-17.71-.29-35.4-1.82a329.52,329.52,0,0,1,1.55-78.08c.81-5.75,1.81-11.61,4.61-16.7C626.82,825.6,634.55,818.41,642.85,816.15Z" transform="translate(-58.33 -34)" fill="#473f47"></path><path d="M987.71,1057.81s21,.6,25,9.13,4,67.12,4,67.12h-90.1s-2.07-61.75,2.16-67.43S987.71,1057.81,987.71,1057.81Z" transform="translate(-58.33 -34)" fill="#68e1fd"></path><path d="M961.21,973.12a17.23,17.23,0,0,1,12.9,1.19c2.13,1.14,3,3.34,4.77,4.54,1.48,1,4-.16,5.23,1.63,1.42,2.09,2.39,5.55,3.52,7.9,1.45,3,2.76,6.13,3.94,9.27a128.83,128.83,0,0,1,5.54,19.36,168.94,168.94,0,0,1,3.07,39.83c-.28,8-1,16.14-4.09,23.56-3.32,8.11-18.68,5.77-25.45,5.66q-17.73-.27-35.4-1.82a329.54,329.54,0,0,1,1.55-78.08c.81-5.75,1.81-11.61,4.6-16.7C945.19,982.57,952.91,975.38,961.21,973.12Z" transform="translate(-58.33 -34)" fill="#473f47"></path><path d="M903.09,996.79s21,.61,25,9.13,4,64.84,4,64.84h-90.1s-2.07-59.47,2.16-65.14S903.09,996.79,903.09,996.79Z" transform="translate(-58.33 -34)" fill="#68e1fd"></path><path d="M854.87,1025.77c-2.66-9.76-7.35-21.14-7.47-31.3-.1-8.9-5.78-14.7-8.85-22.81-2.4-6.36-2.31-13.35-2.19-20.15s.32-14.15,3.67-20.2c2.06-3.73,5.17-6.74,8.27-9.65,3.76-3.52,7.64-7,12.32-9.2s10.34-2.77,14.91-.39a44.77,44.77,0,0,1,4.51,3c5.75,3.93,14.55,5.79,18.52,11.75,4.47,6.7,7.11,15.73,9.27,23.42,4.49,16,5.92,32.69,5.35,49.22-.28,8-1,16.15-4.09,23.57a7.08,7.08,0,0,1-2.3,3.35,7.68,7.68,0,0,1-4.2.91A447.18,447.18,0,0,1,854.87,1025.77Z" transform="translate(-58.33 -34)" fill="#473f47"></path><path d="M891.22,1201.33s-3.93-131.9-7-136.39-28.63-13.75-60.35-11.51-41.26,11.51-41.26,11.51l-8.14,136.39Z" transform="translate(-58.33 -34)" fill="#665966"></path><path d="M867.11,1131.7s-16,7.24-17.78,12.72-6.29,56.91-6.29,56.91H967.58s-6.84-59.19-11.87-64.22S893.57,1125.37,867.11,1131.7Z" transform="translate(-58.33 -34)" fill="#473f47"></path><path d="M924.1,1046.09c1,.14,2,0,3.07.15a6.59,6.59,0,0,1,5.33,4.34,12.74,12.74,0,0,0,.81,2.37,15.51,15.51,0,0,0,1.85,2,5.31,5.31,0,0,1,.61,5.81,8,8,0,0,1,4.07,6.51c0,1-.11,2.09,0,3.12.3,3.25,2.94,5.72,4.32,8.67a12,12,0,0,1-5.71,15.39,10,10,0,0,1,.32,13.82c2.78,2.26,5.66,4.66,7,8s.61,7.79-2.58,9.42a8,8,0,0,1-6.12,13.44,10.1,10.1,0,0,1-11.43,12.79,45.13,45.13,0,0,1-1,13.21,33.13,33.13,0,0,1-19.25-1.36c-2.55,1.8-5.19,3.64-8.24,4.3s-6.65-.17-8.34-2.78c-.95-1.47-1.37-3.48-3-4.2a5.15,5.15,0,0,0-2.14-.3l-11.18,0a3.71,3.71,0,0,1-2.35-.52,3.37,3.37,0,0,1-1-1.87,20.09,20.09,0,0,1-.34-9.25,7.33,7.33,0,0,1-4-9.63,15.46,15.46,0,0,0,1.37-2.84c.4-1.66-.38-3.34-.68-5a9.18,9.18,0,0,1,1.44-6.74,6,6,0,0,0,1.27-2.34c.17-1.15-.55-2.21-1.12-3.22a15,15,0,0,1-1.17-12c.47-1.39,1.15-2.8,1-4.26a10.42,10.42,0,0,0-.83-2.53,14.89,14.89,0,0,1,.71-12.25,9.6,9.6,0,0,0,1.36-3.12,7.8,7.8,0,0,0-.33-2.83,39.42,39.42,0,0,1-.37-15.53c.51-2.89,1.59-6,4.21-7.37a3.68,3.68,0,0,0,1.5-1,3.38,3.38,0,0,0,.35-1.87,8.61,8.61,0,0,1,9.51-7.94c1.53-6.07,9.53-9.42,14.93-6.26a8,8,0,0,1,6.93-5.94c4-.33,6.14,3,9.07,4.56S920.84,1045.63,924.1,1046.09Z" transform="translate(-58.33 -34)" fill="#cd8809"></path><path d="M850.28,1048.69a2.49,2.49,0,0,0-1.54-.66c-3.24-.47-6.48.53-9.7,1.16-7.51,1.47-15.25.91-22.9.51a1.27,1.27,0,0,0-.58.06,1,1,0,0,0-.46.52,3.55,3.55,0,0,0,.69,3.71,8.3,8.3,0,0,0,3.31,2.15,28.9,28.9,0,0,0,5.82,1.75,46.55,46.55,0,0,0,7.55.65c4.67.09,9.51-.11,13.91-1.83a5.14,5.14,0,0,0,3-2.35C850.16,1053,851.54,1050.07,850.28,1048.69Z" transform="translate(-58.33 -34)" fill="#fff"></path><path d="M861.54,987.16a19,19,0,0,1,2.51,3.88c2.28,4.69,2.82,10,2.89,15.24a33.16,33.16,0,0,1-2.12,13.24c-1.78,4.32-4.72,7.59-7.19,11.55-2.11,3.39-3.66,7.11-5.94,10.39a25.86,25.86,0,0,1-17.87,11,22.24,22.24,0,0,1-19.33-7.5c-2.29-2.76-3.81-6.07-5.67-9.14a89.09,89.09,0,0,1-5-8.25c-2.1-4.49-2.69-9.52-3.07-14.46a57.34,57.34,0,0,1,.31-14.46,23.59,23.59,0,0,1,6.31-12.79,36.47,36.47,0,0,1,7.23-5c4.35-2.53,8.78-5.1,13.65-6.36s10.36-1.06,14.59,1.67c1.82,1.17,3.41,2.67,5.26,3.79s4.07,1.54,6.2,2.28A16.45,16.45,0,0,1,861.54,987.16Z" transform="translate(-58.33 -34)" fill="#cd8809"></path><path d="M773.45,996.79s21,.61,25,9.13,4,64.84,4,64.84h-90.1s-2.07-59.47,2.15-65.14S773.45,996.79,773.45,996.79Z" transform="translate(-58.33 -34)" fill="#68e1fd"></path><path d="M757.44,914.47c5.33,2.23,8.78,7.39,11.49,12.49,11.72,22,15.47,47.59,14.6,72.51-.28,8-1,16.15-4.08,23.57a7.08,7.08,0,0,1-2.3,3.35,7.7,7.7,0,0,1-4.2.91,447,447,0,0,1-47.72-1.53c-5.33-19.54-10.71-39.35-10.81-59.6,0-10.64,1.44-21.51,6.28-31s13.41-17.4,23.81-19.66c6.79-1.48,15.19.33,18.08,6.65" transform="translate(-58.33 -34)" fill="#473f47"></path><path d="M737.26,1187.33s-3.92-131.91-7-136.4-28.63-13.75-60.35-11.51-41.25,11.51-41.25,11.51l-8.14,136.4Z" transform="translate(-58.33 -34)" fill="#665966"></path><path d="M713.15,1117.69s-15.95,7.24-17.78,12.72-6.29,56.92-6.29,56.92H813.63s-6.85-59.2-11.87-64.22S739.61,1111.36,713.15,1117.69Z" transform="translate(-58.33 -34)" fill="#473f47"></path><path d="M770.14,1032.08c1,.15,2.06,0,3.07.15a6.59,6.59,0,0,1,5.34,4.34,11.8,11.8,0,0,0,.8,2.37,16.31,16.31,0,0,0,1.85,2,5.31,5.31,0,0,1,.61,5.82,8,8,0,0,1,4.07,6.51c0,1-.11,2.08,0,3.12.3,3.24,2.95,5.71,4.32,8.66a12,12,0,0,1-5.71,15.39,10,10,0,0,1,.33,13.82c2.77,2.26,5.65,4.66,7,8s.61,7.79-2.58,9.42a8,8,0,0,1-6.12,13.44,10.08,10.08,0,0,1-11.43,12.79,45.12,45.12,0,0,1-1,13.21,33.16,33.16,0,0,1-19.26-1.36c-2.55,1.8-5.19,3.65-8.24,4.31s-6.64-.17-8.34-2.79c-1-1.46-1.37-3.48-3-4.19a5.13,5.13,0,0,0-2.14-.31l-11.17,0a3.7,3.7,0,0,1-2.35-.53,3.39,3.39,0,0,1-1-1.86,20.13,20.13,0,0,1-.33-9.26,7.32,7.32,0,0,1-4-9.62,15.87,15.87,0,0,0,1.37-2.85c.4-1.66-.38-3.34-.68-5A9.19,9.19,0,0,1,713,1111a5.9,5.9,0,0,0,1.27-2.34c.17-1.14-.55-2.21-1.12-3.21a15,15,0,0,1-1.17-12c.47-1.4,1.16-2.8,1-4.27a10.14,10.14,0,0,0-.83-2.53,14.86,14.86,0,0,1,.72-12.25,10,10,0,0,0,1.36-3.12,8.32,8.32,0,0,0-.33-2.83,39.19,39.19,0,0,1-.38-15.52c.51-2.9,1.59-6.05,4.21-7.38a3.78,3.78,0,0,0,1.51-1,3.38,3.38,0,0,0,.34-1.87,8.62,8.62,0,0,1,9.51-7.94c1.53-6.06,9.54-9.42,14.93-6.25a8,8,0,0,1,6.93-6c4.05-.33,6.15,3,9.07,4.57S766.88,1031.62,770.14,1032.08Z" transform="translate(-58.33 -34)" fill="#cd8809"></path><path d="M696.32,1034.68a2.47,2.47,0,0,0-1.53-.65c-3.24-.48-6.49.52-9.71,1.15-7.51,1.48-15.25.91-22.9.51a1.27,1.27,0,0,0-.58.06,1.06,1.06,0,0,0-.46.52,3.57,3.57,0,0,0,.69,3.71,8.5,8.5,0,0,0,3.31,2.16,28.87,28.87,0,0,0,5.82,1.74,46.55,46.55,0,0,0,7.55.65c4.67.09,9.51-.11,13.92-1.82a5.1,5.1,0,0,0,3-2.36C696.2,1039,697.58,1036.07,696.32,1034.68Z" transform="translate(-58.33 -34)" fill="#fff"></path><path d="M707.58,973.15a18.81,18.81,0,0,1,2.51,3.88c2.28,4.69,2.82,10,2.89,15.24a33,33,0,0,1-2.12,13.24c-1.78,4.33-4.72,7.6-7.19,11.56-2.11,3.38-3.66,7.11-5.94,10.38a25.79,25.79,0,0,1-17.87,11,22.21,22.21,0,0,1-19.32-7.5c-2.3-2.76-3.82-6.06-5.68-9.13a92.91,92.91,0,0,1-5-8.26c-2.1-4.49-2.69-9.52-3.06-14.46a56.79,56.79,0,0,1,.3-14.45,23.62,23.62,0,0,1,6.31-12.8,36.2,36.2,0,0,1,7.24-5c4.35-2.54,8.77-5.11,13.65-6.37s10.35-1.06,14.59,1.67c1.81,1.17,3.4,2.67,5.25,3.79s4.07,1.54,6.2,2.28A16.45,16.45,0,0,1,707.58,973.15Z" transform="translate(-58.33 -34)" fill="#cd8809"></path><path d="M669.35,1125.08s21,.6,25,9.13,4,67.12,4,67.12h-90.1s-2.08-61.75,2.15-67.43S669.35,1125.08,669.35,1125.08Z" transform="translate(-58.33 -34)" fill="#68e1fd"></path><path d="M642.85,1040.39a17.2,17.2,0,0,1,12.89,1.19c2.14,1.14,3,3.34,4.78,4.54,1.47,1,4-.16,5.22,1.63,1.43,2.09,2.39,5.55,3.52,7.9q2.18,4.55,4,9.27a128.79,128.79,0,0,1,5.53,19.36,168.41,168.41,0,0,1,3.07,39.83c-.28,8-1,16.14-4.09,23.56-3.31,8.11-18.67,5.77-25.45,5.66q-17.71-.27-35.4-1.82a329.54,329.54,0,0,1,1.55-78.08c.81-5.75,1.81-11.61,4.61-16.7C626.82,1049.84,634.55,1042.65,642.85,1040.39Z" transform="translate(-58.33 -34)" fill="#473f47"></path><path d="M664,900.88s21,.61,25,9.13,4,67.13,4,67.13h-90.1s-2.07-61.75,2.16-67.43S664,900.88,664,900.88Z" transform="translate(-58.33 -34)" fill="#68e1fd"></path><path d="M637.51,816.2a17.18,17.18,0,0,1,12.9,1.19c2.13,1.13,3,3.33,4.77,4.54,1.48,1,4-.16,5.23,1.63,1.42,2.09,2.39,5.55,3.52,7.9q2.18,4.54,3.94,9.26a129.29,129.29,0,0,1,5.54,19.37,168.89,168.89,0,0,1,3.07,39.82c-.28,8-1.05,16.15-4.09,23.57-3.32,8.1-18.68,5.77-25.45,5.66q-17.73-.28-35.4-1.82a329,329,0,0,1,1.55-78.08c.8-5.75,1.8-11.61,4.6-16.7C621.49,825.65,629.21,818.46,637.51,816.2Z" transform="translate(-58.33 -34)" fill="#473f47"></path><path d="M579.39,839.87s21,.6,25,9.13,4,64.83,4,64.83h-90.1s-2.07-59.46,2.16-65.14S579.39,839.87,579.39,839.87Z" transform="translate(-58.33 -34)" fill="#68e1fd"></path><path d="M520.37,809.24c-.06-10.63,1.43-21.5,6.27-31,9.68-18.92,38.35-32.67,50-7.47,4.64,10.06,3.84,21.69,2.78,32.72s-2.21,22.55,1.83,32.87c2.46,6.28,6.77,11.88,8,18.51,2.34,12.56-7,24.29-17,32.16-6.19,4.85-13.54,9.19-21.38,8.57-8.62-.67-15.9-7.47-19.13-15.49-3.9-9.71-2.35-20.4-5.47-30.4A140.91,140.91,0,0,1,520.37,809.24Z" transform="translate(-58.33 -34)" fill="#684712"></path><path d="M319.14,854.66s21,.61,25,9.13,3.95,64.84,3.95,64.84H258s-2.07-59.46,2.16-65.14S319.14,854.66,319.14,854.66Z" transform="translate(-58.33 -34)" fill="#68e1fd"></path><path d="M303.13,772.35c5.33,2.22,8.78,7.39,11.49,12.48,11.72,22,15.47,47.59,14.6,72.52-.28,8-1.05,16.14-4.09,23.56a7.06,7.06,0,0,1-2.29,3.35,7.63,7.63,0,0,1-4.2.91,444.4,444.4,0,0,1-47.72-1.52c-5.34-19.54-10.71-39.35-10.81-59.61-.05-10.63,1.44-21.5,6.28-31s13.41-17.41,23.81-19.67c6.79-1.48,15.19.33,18.08,6.65" transform="translate(-58.33 -34)" fill="#473f47"></path><path d="M567.52,1044.41s-3.93-131.9-7-136.4-28.62-13.75-60.34-11.5S458.9,908,458.9,908l-8.14,136.4Z" transform="translate(-58.33 -34)" fill="#665966"></path><path d="M543.41,974.77s-16,7.25-17.78,12.73-6.29,56.91-6.29,56.91H643.88S637,985.21,632,980.19,569.87,968.45,543.41,974.77Z" transform="translate(-58.33 -34)" fill="#473f47"></path><path d="M600.4,889.17c1,.14,2.05,0,3.07.14a6.58,6.58,0,0,1,5.33,4.35,12.64,12.64,0,0,0,.81,2.36,14.9,14.9,0,0,0,1.85,2.05,5.33,5.33,0,0,1,.61,5.82,8,8,0,0,1,4.07,6.51c.05,1-.12,2.08,0,3.12.3,3.24,2.94,5.71,4.32,8.66a12,12,0,0,1-5.71,15.4,10,10,0,0,1,.32,13.81c2.78,2.26,5.66,4.66,7,8s.61,7.79-2.58,9.43a8,8,0,0,1-6.12,13.43A10.1,10.1,0,0,1,602,995a45.06,45.06,0,0,1-1,13.2,33.13,33.13,0,0,1-19.25-1.36c-2.55,1.81-5.19,3.65-8.24,4.31s-6.65-.17-8.35-2.79c-.94-1.46-1.36-3.47-3-4.19a5.15,5.15,0,0,0-2.14-.3l-11.18,0a3.78,3.78,0,0,1-2.35-.52,3.48,3.48,0,0,1-1-1.87,20.26,20.26,0,0,1-.33-9.26,7.33,7.33,0,0,1-4-9.62,15.78,15.78,0,0,0,1.37-2.84c.4-1.66-.38-3.35-.68-5a9.2,9.2,0,0,1,1.44-6.74,6.06,6.06,0,0,0,1.27-2.33c.17-1.15-.55-2.21-1.13-3.22a15,15,0,0,1-1.16-12c.47-1.4,1.15-2.8,1-4.26a10.49,10.49,0,0,0-.83-2.54,14.87,14.87,0,0,1,.71-12.24,9.6,9.6,0,0,0,1.36-3.12,8,8,0,0,0-.33-2.83,39.61,39.61,0,0,1-.38-15.53c.51-2.89,1.6-6,4.22-7.37a3.77,3.77,0,0,0,1.5-1,3.35,3.35,0,0,0,.35-1.87,8.6,8.6,0,0,1,9.51-7.93c1.52-6.07,9.53-9.43,14.93-6.26a8,8,0,0,1,6.93-5.94c4.05-.33,6.14,3,9.07,4.56S597.14,888.71,600.4,889.17Z" transform="translate(-58.33 -34)" fill="#cd8809"></path><path d="M526.58,891.76a2.5,2.5,0,0,0-1.54-.65c-3.24-.48-6.49.53-9.7,1.16-7.51,1.47-15.25.9-22.9.5a1.26,1.26,0,0,0-.58.07,1,1,0,0,0-.46.52,3.53,3.53,0,0,0,.69,3.7,8.32,8.32,0,0,0,3.31,2.16,28.87,28.87,0,0,0,5.82,1.74,45.45,45.45,0,0,0,7.55.65c4.67.1,9.51-.11,13.91-1.82a5.12,5.12,0,0,0,3-2.36C526.45,896.07,527.84,893.15,526.58,891.76Z" transform="translate(-58.33 -34)" fill="#fff"></path><path d="M537.84,830.24a18.69,18.69,0,0,1,2.51,3.88c2.28,4.68,2.82,10,2.89,15.24a33.11,33.11,0,0,1-2.12,13.23c-1.78,4.33-4.72,7.6-7.19,11.56-2.11,3.38-3.66,7.11-5.94,10.38a25.8,25.8,0,0,1-17.87,11A22.23,22.23,0,0,1,490.79,888c-2.29-2.76-3.81-6.07-5.67-9.14a87.94,87.94,0,0,1-5-8.26c-2.1-4.49-2.69-9.52-3.07-14.46a57.26,57.26,0,0,1,.31-14.45,23.59,23.59,0,0,1,6.31-12.79,35.77,35.77,0,0,1,7.23-5c4.35-2.54,8.78-5.1,13.65-6.36s10.36-1.07,14.59,1.66c1.82,1.17,3.41,2.68,5.26,3.79s4.07,1.55,6.2,2.28A16.47,16.47,0,0,1,537.84,830.24Z" transform="translate(-58.33 -34)" fill="#473f47"></path><path d="M437.88,1044.41s-3.93-131.9-7-136.4-28.63-13.75-60.34-11.5S329.26,908,329.26,908l-8.14,136.4Z" transform="translate(-58.33 -34)" fill="#665966"></path><path d="M413.77,974.77S397.81,982,396,987.5s-6.29,56.91-6.29,56.91H514.24s-6.85-59.2-11.87-64.22S440.22,968.45,413.77,974.77Z" transform="translate(-58.33 -34)" fill="#473f47"></path><path d="M470.76,889.17c1,.14,2.05,0,3.07.14a6.58,6.58,0,0,1,5.33,4.35A12.61,12.61,0,0,0,480,896a15.65,15.65,0,0,0,1.86,2.05,5.33,5.33,0,0,1,.61,5.82,8,8,0,0,1,4.07,6.51c0,1-.12,2.08,0,3.12.29,3.24,2.94,5.71,4.31,8.66a12,12,0,0,1-5.7,15.4,10,10,0,0,1,.32,13.81c2.78,2.26,5.66,4.66,7,8s.61,7.79-2.57,9.43a8,8,0,0,1-6.12,13.43A10.1,10.1,0,0,1,472.3,995a44.72,44.72,0,0,1-1,13.2,33.13,33.13,0,0,1-19.25-1.36c-2.55,1.81-5.19,3.65-8.24,4.31s-6.65-.17-8.35-2.79c-.95-1.46-1.36-3.47-2.95-4.19a5.2,5.2,0,0,0-2.15-.3l-11.17,0a3.76,3.76,0,0,1-2.35-.52,3.42,3.42,0,0,1-1-1.87,20.13,20.13,0,0,1-.33-9.26,7.31,7.31,0,0,1-4-9.62,15.09,15.09,0,0,0,1.36-2.84c.4-1.66-.37-3.35-.68-5a9.2,9.2,0,0,1,1.44-6.74,6,6,0,0,0,1.28-2.33c.16-1.15-.56-2.21-1.13-3.22a15,15,0,0,1-1.16-12c.46-1.4,1.15-2.8,1-4.26a10.05,10.05,0,0,0-.82-2.54,14.87,14.87,0,0,1,.71-12.24,9.6,9.6,0,0,0,1.36-3.12,8,8,0,0,0-.33-2.83,39.61,39.61,0,0,1-.38-15.53c.51-2.89,1.59-6,4.22-7.37a3.77,3.77,0,0,0,1.5-1,3.26,3.26,0,0,0,.34-1.87,8.61,8.61,0,0,1,9.52-7.93c1.52-6.07,9.53-9.43,14.92-6.26a8,8,0,0,1,6.93-5.94c4.06-.33,6.15,3,9.07,4.56S467.49,888.71,470.76,889.17Z" transform="translate(-58.33 -34)" fill="#684712"></path><path d="M396.94,891.76a2.5,2.5,0,0,0-1.54-.65c-3.24-.48-6.49.53-9.7,1.16-7.52,1.47-15.26.9-22.9.5a1.26,1.26,0,0,0-.58.07,1,1,0,0,0-.46.52,3.55,3.55,0,0,0,.68,3.7,8.46,8.46,0,0,0,3.31,2.16,29,29,0,0,0,5.83,1.74,45.33,45.33,0,0,0,7.54.65c4.68.1,9.51-.11,13.92-1.82a5.07,5.07,0,0,0,3-2.36C396.81,896.07,398.19,893.15,396.94,891.76Z" transform="translate(-58.33 -34)" fill="#fff"></path><path d="M408.19,830.24a18.29,18.29,0,0,1,2.51,3.88c2.29,4.68,2.83,10,2.9,15.24a32.94,32.94,0,0,1-2.13,13.23c-1.77,4.33-4.71,7.6-7.19,11.56-2.11,3.38-3.65,7.11-5.93,10.38a25.8,25.8,0,0,1-17.87,11A22.21,22.21,0,0,1,361.15,888c-2.3-2.76-3.81-6.07-5.67-9.14a87.94,87.94,0,0,1-5-8.26c-2.1-4.49-2.69-9.52-3.07-14.46a56.8,56.8,0,0,1,.3-14.45A23.66,23.66,0,0,1,354,828.89a36.12,36.12,0,0,1,7.24-5c4.35-2.54,8.77-5.1,13.65-6.36s10.35-1.07,14.59,1.66c1.81,1.17,3.41,2.68,5.26,3.79s4.07,1.55,6.2,2.28A16.44,16.44,0,0,1,408.19,830.24Z" transform="translate(-58.33 -34)" fill="#af7210"></path><path d="M345.65,968.15s21,.61,25,9.13,3.95,67.13,3.95,67.13h-90.1s-2.07-61.75,2.16-67.43S345.65,968.15,345.65,968.15Z" transform="translate(-58.33 -34)" fill="#68e1fd"></path><path d="M319.15,883.47A17.16,17.16,0,0,1,332,884.66c2.14,1.13,3,3.33,4.78,4.54,1.47,1,4-.16,5.22,1.63,1.43,2.09,2.39,5.55,3.52,7.9q2.18,4.54,3.95,9.26A129.25,129.25,0,0,1,355,927.36a168.89,168.89,0,0,1,3.07,39.82c-.28,8-1.05,16.15-4.09,23.57-3.31,8.1-18.68,5.77-25.45,5.66q-17.73-.28-35.4-1.82a329.52,329.52,0,0,1,1.55-78.08c.81-5.75,1.81-11.61,4.61-16.7C303.12,892.92,310.85,885.73,319.15,883.47Z" transform="translate(-58.33 -34)" fill="#473f47"></path><path d="M664,1125.13s21,.6,25,9.13,4,67.12,4,67.12h-90.1s-2.07-61.75,2.16-67.43S664,1125.13,664,1125.13Z" transform="translate(-58.33 -34)" fill="#68e1fd"></path><path d="M637.51,1040.44a17.23,17.23,0,0,1,12.9,1.19c2.13,1.14,3,3.34,4.77,4.54,1.48,1,4-.16,5.23,1.63,1.42,2.09,2.39,5.55,3.52,7.9q2.18,4.54,3.94,9.27a128.83,128.83,0,0,1,5.54,19.36,168.94,168.94,0,0,1,3.07,39.83c-.28,8-1.05,16.14-4.09,23.56-3.32,8.11-18.68,5.77-25.45,5.66q-17.73-.27-35.4-1.82a329,329,0,0,1,1.55-78.08c.8-5.75,1.8-11.61,4.6-16.7C621.49,1049.89,629.21,1042.7,637.51,1040.44Z" transform="translate(-58.33 -34)" fill="#473f47"></path><path d="M579.39,1064.11s21,.61,25,9.13,4,64.84,4,64.84h-90.1s-2.07-59.47,2.16-65.14S579.39,1064.11,579.39,1064.11Z" transform="translate(-58.33 -34)" fill="#68e1fd"></path><path d="M563.39,981.79c5.32,2.23,8.77,7.39,11.49,12.49,11.71,22,15.47,47.59,14.59,72.51-.27,8-1,16.15-4.08,23.57a7.08,7.08,0,0,1-2.3,3.35,7.68,7.68,0,0,1-4.2.91,447.1,447.1,0,0,1-47.72-1.53c-5.33-19.54-10.7-39.35-10.8-59.6-.06-10.64,1.43-21.51,6.27-31s13.42-17.4,23.81-19.66c6.79-1.48,15.19.33,18.08,6.65" transform="translate(-58.33 -34)" fill="#473f47"></path><path d="M567.52,1268.65s-3.93-131.9-7-136.39-28.62-13.75-60.34-11.51-41.26,11.51-41.26,11.51l-8.14,136.39Z" transform="translate(-58.33 -34)" fill="#665966"></path><path d="M543.41,1199s-16,7.24-17.78,12.72-6.29,56.91-6.29,56.91H643.88S637,1209.46,632,1204.43,569.87,1192.69,543.41,1199Z" transform="translate(-58.33 -34)" fill="#473f47"></path><path d="M600.4,1113.41c1,.14,2.05,0,3.07.15a6.59,6.59,0,0,1,5.33,4.34,12.74,12.74,0,0,0,.81,2.37,15.51,15.51,0,0,0,1.85,2,5.31,5.31,0,0,1,.61,5.81,8,8,0,0,1,4.07,6.51c.05,1-.12,2.09,0,3.12.3,3.25,2.94,5.71,4.32,8.66a12,12,0,0,1-5.71,15.4,10,10,0,0,1,.32,13.82c2.78,2.26,5.66,4.66,7,8s.61,7.79-2.58,9.42a8,8,0,0,1-6.12,13.43,10.1,10.1,0,0,1-11.43,12.8,45.13,45.13,0,0,1-1,13.21,33.13,33.13,0,0,1-19.25-1.36c-2.55,1.8-5.19,3.64-8.24,4.3s-6.65-.17-8.35-2.79c-.94-1.46-1.36-3.47-3-4.19a5.15,5.15,0,0,0-2.14-.3l-11.18,0a3.78,3.78,0,0,1-2.35-.52,3.45,3.45,0,0,1-1-1.87,20.23,20.23,0,0,1-.33-9.25,7.33,7.33,0,0,1-4-9.63,15.46,15.46,0,0,0,1.37-2.84c.4-1.66-.38-3.34-.68-5a9.18,9.18,0,0,1,1.44-6.74,6,6,0,0,0,1.27-2.34c.17-1.15-.55-2.21-1.13-3.22a15,15,0,0,1-1.16-12c.47-1.39,1.15-2.8,1-4.26a10.42,10.42,0,0,0-.83-2.53,14.89,14.89,0,0,1,.71-12.25,9.6,9.6,0,0,0,1.36-3.12,8,8,0,0,0-.33-2.83,39.61,39.61,0,0,1-.38-15.53c.51-2.89,1.6-6,4.22-7.37a3.75,3.75,0,0,0,1.5-1,3.38,3.38,0,0,0,.35-1.87,8.61,8.61,0,0,1,9.51-7.94c1.52-6.07,9.53-9.42,14.93-6.26a8,8,0,0,1,6.93-5.94c4.05-.33,6.14,3,9.07,4.56S597.14,1113,600.4,1113.41Z" transform="translate(-58.33 -34)" fill="#cd8809"></path><path d="M526.58,1116a2.5,2.5,0,0,0-1.54-.65c-3.24-.47-6.49.53-9.7,1.16-7.51,1.47-15.25.91-22.9.51a1.25,1.25,0,0,0-.58.06,1,1,0,0,0-.46.52,3.55,3.55,0,0,0,.69,3.71,8.3,8.3,0,0,0,3.31,2.15,28.9,28.9,0,0,0,5.82,1.75,46.55,46.55,0,0,0,7.55.65c4.67.09,9.51-.12,13.91-1.83a5.14,5.14,0,0,0,3-2.35C526.45,1120.31,527.84,1117.39,526.58,1116Z" transform="translate(-58.33 -34)" fill="#fff"></path><path d="M537.84,1054.48a19,19,0,0,1,2.51,3.88c2.28,4.69,2.82,10,2.89,15.24a33.08,33.08,0,0,1-2.12,13.23c-1.78,4.33-4.72,7.6-7.19,11.56-2.11,3.39-3.66,7.11-5.94,10.38a25.8,25.8,0,0,1-17.87,11,22.2,22.2,0,0,1-19.33-7.49c-2.29-2.76-3.81-6.07-5.67-9.14a87.94,87.94,0,0,1-5-8.26c-2.1-4.48-2.69-9.51-3.07-14.45a57.34,57.34,0,0,1,.31-14.46,23.59,23.59,0,0,1,6.31-12.79,36.18,36.18,0,0,1,7.23-5.05c4.35-2.53,8.78-5.1,13.65-6.36s10.36-1.06,14.59,1.67c1.82,1.17,3.41,2.67,5.26,3.79s4.07,1.54,6.2,2.28A16.37,16.37,0,0,1,537.84,1054.48Z" transform="translate(-58.33 -34)" fill="#cd8809"></path><path d="M449.75,1064.11s21,.61,25,9.13,4,64.84,4,64.84h-90.1s-2.07-59.47,2.15-65.14S449.75,1064.11,449.75,1064.11Z" transform="translate(-58.33 -34)" fill="#68e1fd"></path><path d="M433.74,981.79c5.33,2.23,8.78,7.39,11.49,12.49,11.72,22,15.47,47.59,14.6,72.51-.28,8-1.05,16.15-4.08,23.57a7.08,7.08,0,0,1-2.3,3.35,7.72,7.72,0,0,1-4.2.91,447,447,0,0,1-47.72-1.53c-5.33-19.54-10.71-39.35-10.81-59.6-.05-10.64,1.44-21.51,6.28-31s13.41-17.4,23.81-19.66c6.79-1.48,15.19.33,18.08,6.65" transform="translate(-58.33 -34)" fill="#473f47"></path><path d="M413.56,1254.65s-3.93-131.91-7-136.4-28.63-13.75-60.35-11.51-41.26,11.51-41.26,11.51l-8.13,136.4Z" transform="translate(-58.33 -34)" fill="#665966"></path><path d="M389.45,1185s-15.95,7.24-17.78,12.72-6.29,56.92-6.29,56.92H489.93s-6.85-59.2-11.88-64.22S415.91,1178.68,389.45,1185Z" transform="translate(-58.33 -34)" fill="#473f47"></path><path d="M446.44,1099.4c1,.15,2.06,0,3.07.15a6.6,6.6,0,0,1,5.34,4.34,12,12,0,0,0,.8,2.37,16.31,16.31,0,0,0,1.85,2,5.31,5.31,0,0,1,.61,5.82,8,8,0,0,1,4.07,6.51c.05,1-.11,2.08,0,3.12.3,3.24,2.95,5.71,4.32,8.66a12,12,0,0,1-5.71,15.39,10,10,0,0,1,.32,13.82c2.78,2.26,5.66,4.66,7,8s.61,7.79-2.58,9.42a8,8,0,0,1-6.12,13.44A10.08,10.08,0,0,1,448,1205.25a45.12,45.12,0,0,1-1,13.21,33.16,33.16,0,0,1-19.26-1.36c-2.55,1.8-5.19,3.65-8.24,4.31s-6.65-.17-8.34-2.79c-.95-1.47-1.37-3.48-3-4.19a5.13,5.13,0,0,0-2.14-.31l-11.17,0a3.7,3.7,0,0,1-2.35-.53,3.39,3.39,0,0,1-1-1.86,20.14,20.14,0,0,1-.33-9.26,7.32,7.32,0,0,1-4-9.62,15.87,15.87,0,0,0,1.37-2.85c.4-1.66-.38-3.34-.68-5a9.18,9.18,0,0,1,1.44-6.74,5.9,5.9,0,0,0,1.27-2.34c.17-1.14-.55-2.21-1.12-3.21a15,15,0,0,1-1.17-12c.47-1.4,1.15-2.8,1-4.27a10.14,10.14,0,0,0-.83-2.53,14.86,14.86,0,0,1,.72-12.25,10,10,0,0,0,1.36-3.12,8.32,8.32,0,0,0-.33-2.83,39.19,39.19,0,0,1-.38-15.52c.51-2.9,1.59-6,4.21-7.38a3.68,3.68,0,0,0,1.5-1,3.29,3.29,0,0,0,.35-1.87,8.62,8.62,0,0,1,9.51-7.94c1.53-6.06,9.54-9.42,14.93-6.25a8,8,0,0,1,6.93-6c4.05-.33,6.15,3,9.07,4.57S443.18,1098.94,446.44,1099.4Z" transform="translate(-58.33 -34)" fill="#cd8809"></path><path d="M372.62,1102a2.48,2.48,0,0,0-1.54-.65c-3.24-.48-6.48.52-9.7,1.15-7.51,1.48-15.25.91-22.9.51a1.27,1.27,0,0,0-.58.06,1.06,1.06,0,0,0-.46.52,3.57,3.57,0,0,0,.69,3.71,8.5,8.5,0,0,0,3.31,2.16,28.87,28.87,0,0,0,5.82,1.74,46.55,46.55,0,0,0,7.55.65c4.67.09,9.51-.11,13.91-1.82a5.09,5.09,0,0,0,3-2.36C372.5,1106.31,373.88,1103.39,372.62,1102Z" transform="translate(-58.33 -34)" fill="#fff"></path><path d="M383.88,1040.47a18.81,18.81,0,0,1,2.51,3.88c2.28,4.69,2.82,10,2.89,15.24a33,33,0,0,1-2.12,13.24c-1.78,4.33-4.72,7.59-7.19,11.56-2.11,3.38-3.66,7.1-5.94,10.38a25.79,25.79,0,0,1-17.87,11,22.21,22.21,0,0,1-19.32-7.5c-2.3-2.76-3.82-6.06-5.68-9.13a92.91,92.91,0,0,1-5-8.26c-2.1-4.49-2.69-9.52-3.06-14.46a56.79,56.79,0,0,1,.3-14.45,23.62,23.62,0,0,1,6.31-12.8,36.42,36.42,0,0,1,7.23-5c4.36-2.54,8.78-5.11,13.66-6.37s10.35-1.06,14.58,1.67c1.82,1.17,3.41,2.67,5.26,3.79s4.07,1.54,6.2,2.28A16.45,16.45,0,0,1,383.88,1040.47Z" transform="translate(-58.33 -34)" fill="#cd8809"></path><path d="M213.27,1000.62s-3.93-131.9-7-136.39-28.63-13.76-60.34-11.51-41.26,11.51-41.26,11.51l-8.14,136.39Z" transform="translate(-58.33 -34)" fill="#665966"></path><path d="M191,906.33S175,913.57,173.2,919.05,166.91,976,166.91,976H291.46s-6.85-59.19-11.87-64.22S217.44,900,191,906.33Z" transform="translate(-58.33 -34)" fill="#473f47"></path><path d="M248,820.72c1,.14,2.06,0,3.08.15a6.59,6.59,0,0,1,5.33,4.34,12,12,0,0,0,.8,2.37,16.31,16.31,0,0,0,1.85,2,5.32,5.32,0,0,1,.62,5.81,8,8,0,0,1,4.06,6.51c.05,1-.11,2.09,0,3.13.3,3.24,2.95,5.71,4.32,8.66a12,12,0,0,1-5.71,15.39,10,10,0,0,1,.33,13.82c2.77,2.26,5.66,4.66,7,8s.61,7.79-2.58,9.42A8,8,0,0,1,261,913.78a10.08,10.08,0,0,1-11.43,12.79,45.12,45.12,0,0,1-1,13.21,33.17,33.17,0,0,1-19.26-1.36c-2.54,1.8-5.18,3.64-8.23,4.3s-6.65-.17-8.35-2.78c-.95-1.47-1.37-3.48-3-4.2a5.13,5.13,0,0,0-2.14-.3l-11.17,0a3.63,3.63,0,0,1-2.35-.52,3.39,3.39,0,0,1-1-1.87,20.09,20.09,0,0,1-.33-9.25,7.31,7.31,0,0,1-4-9.62,15.17,15.17,0,0,0,1.36-2.85c.4-1.66-.38-3.34-.68-5a9.18,9.18,0,0,1,1.44-6.74,5.9,5.9,0,0,0,1.27-2.34c.17-1.15-.55-2.21-1.12-3.22a15,15,0,0,1-1.17-12c.47-1.39,1.16-2.8,1-4.26a10,10,0,0,0-.83-2.53,14.9,14.9,0,0,1,.72-12.25A9.82,9.82,0,0,0,192,859.9a8,8,0,0,0-.33-2.83,39.56,39.56,0,0,1-.38-15.52c.51-2.9,1.59-6,4.22-7.38a3.82,3.82,0,0,0,1.5-1,3.38,3.38,0,0,0,.34-1.87,8.62,8.62,0,0,1,9.52-7.94c1.52-6.07,9.53-9.42,14.92-6.26a8,8,0,0,1,6.93-5.94c4.05-.33,6.15,3,9.07,4.57S244.71,820.26,248,820.72Z" transform="translate(-58.33 -34)" fill="#cd8809"></path><path d="M172.33,848a2.5,2.5,0,0,0-1.54-.65c-3.24-.48-6.49.53-9.7,1.16-7.51,1.47-15.25.9-22.9.5a1.26,1.26,0,0,0-.58.07,1,1,0,0,0-.46.52,3.53,3.53,0,0,0,.69,3.7,8.32,8.32,0,0,0,3.31,2.16,28.68,28.68,0,0,0,5.82,1.74,45.36,45.36,0,0,0,7.55.65c4.67.1,9.51-.11,13.91-1.82a5.12,5.12,0,0,0,3-2.36C172.2,852.28,173.59,849.36,172.33,848Z" transform="translate(-58.33 -34)" fill="#fff"></path><path d="M183.59,786.45a19.11,19.11,0,0,1,2.51,3.88c2.28,4.69,2.82,10,2.89,15.24a33.11,33.11,0,0,1-2.12,13.23c-1.78,4.33-4.72,7.6-7.19,11.56-2.11,3.38-3.66,7.11-5.94,10.38a25.8,25.8,0,0,1-17.87,11,22.22,22.22,0,0,1-19.33-7.49c-2.29-2.76-3.81-6.07-5.67-9.14a87.94,87.94,0,0,1-5-8.26c-2.1-4.49-2.69-9.52-3.07-14.46a56.81,56.81,0,0,1,.31-14.45,23.53,23.53,0,0,1,6.31-12.79,35.77,35.77,0,0,1,7.23-5.05c4.35-2.54,8.77-5.1,13.65-6.36s10.36-1.07,14.59,1.66c1.82,1.17,3.41,2.68,5.26,3.79s4.07,1.55,6.2,2.28A16.47,16.47,0,0,1,183.59,786.45Z" transform="translate(-58.33 -34)" fill="#cd8809"></path><path d="M345.65,1192.4s21,.6,25,9.13,3.95,67.12,3.95,67.12h-90.1s-2.07-61.75,2.16-67.43S345.65,1192.4,345.65,1192.4Z" transform="translate(-58.33 -34)" fill="#68e1fd"></path><path d="M319.15,1107.71A17.2,17.2,0,0,1,332,1108.9c2.14,1.14,3,3.34,4.78,4.54,1.47,1,4-.16,5.22,1.63,1.43,2.09,2.39,5.55,3.52,7.9q2.18,4.54,3.95,9.27A128.79,128.79,0,0,1,355,1151.6a168.94,168.94,0,0,1,3.07,39.83c-.28,8-1.05,16.14-4.09,23.56-3.31,8.11-18.68,5.77-25.45,5.66q-17.73-.27-35.4-1.82a329.53,329.53,0,0,1,1.55-78.08c.81-5.75,1.81-11.61,4.61-16.7C303.12,1117.16,310.85,1110,319.15,1107.71Z" transform="translate(-58.33 -34)" fill="#473f47"></path><path d="M1309.14,994.15s21,.61,25,9.13,4,67.13,4,67.13H1248s-2.07-61.75,2.15-67.43S1309.14,994.15,1309.14,994.15Z" transform="translate(-58.33 -34)" fill="#68e1fd"></path><path d="M1282.64,909.47a17.18,17.18,0,0,1,12.9,1.19c2.13,1.13,3,3.33,4.77,4.54,1.48,1,4-.16,5.22,1.63,1.43,2.09,2.4,5.55,3.53,7.9q2.18,4.54,3.94,9.26a130.48,130.48,0,0,1,5.54,19.37,168.89,168.89,0,0,1,3.06,39.82c-.28,8-1,16.15-4.08,23.57-3.32,8.1-18.68,5.77-25.45,5.66q-17.73-.28-35.4-1.82a329,329,0,0,1,1.55-78.08c.8-5.75,1.8-11.61,4.6-16.7C1266.61,918.92,1274.34,911.73,1282.64,909.47Z" transform="translate(-58.33 -34)" fill="#473f47"></path><path d="M1224.52,933.13s21,.61,25,9.14,4,64.83,4,64.83h-90.1s-2.07-59.46,2.15-65.14S1224.52,933.13,1224.52,933.13Z" transform="translate(-58.33 -34)" fill="#68e1fd"></path><path d="M1176.3,962.12c-3.11-.27-8.8-36.79-9.35-40.88-.71-5.26,0-10.1-1.47-15.19-1.87-6.34-4-12.33-4.27-19a54.76,54.76,0,0,0-.38-8c-.47-2.6-1.57-5.06-2.11-7.66-2.27-11.06,6.82-22.07,17.65-25.3s22.54-.39,33,3.89a27.44,27.44,0,0,1,8.06,4.57c4,3.56,5.86,9,6.59,14.27s.49,10.7,1.07,16c2,17.61,12.91,34.19,10.41,51.73-1,7.43-2.12,15.9-5,22.85a7.06,7.06,0,0,1-2.3,3.36,7.79,7.79,0,0,1-4.2.91A447.1,447.1,0,0,1,1176.3,962.12Z" transform="translate(-58.33 -34)" fill="#5a3b27"></path><path d="M1212.65,1137.68s-3.93-131.9-7-136.4-28.63-13.75-60.34-11.5-41.26,11.5-41.26,11.5l-8.14,136.4Z" transform="translate(-58.33 -34)" fill="#665966"></path><path d="M1188.54,1068s-16,7.25-17.79,12.73-6.29,56.91-6.29,56.91H1289s-6.85-59.2-11.87-64.22S1215,1061.72,1188.54,1068Z" transform="translate(-58.33 -34)" fill="#473f47"></path><path d="M1245.53,982.44c1,.14,2,0,3.07.14a6.58,6.58,0,0,1,5.33,4.35,12,12,0,0,0,.81,2.36,14.9,14.9,0,0,0,1.85,2.05,5.33,5.33,0,0,1,.61,5.82,8,8,0,0,1,4.07,6.51c0,1-.12,2.08,0,3.12.29,3.24,2.94,5.71,4.31,8.66a12,12,0,0,1-5.7,15.4,10,10,0,0,1,.32,13.81c2.78,2.26,5.66,4.66,7,8s.6,7.79-2.58,9.43a8,8,0,0,1-6.12,13.43,10.1,10.1,0,0,1-11.44,12.8,44.72,44.72,0,0,1-1,13.2,33.13,33.13,0,0,1-19.25-1.36c-2.55,1.81-5.19,3.65-8.24,4.31s-6.65-.17-8.35-2.79c-1-1.46-1.36-3.47-3-4.19a5.2,5.2,0,0,0-2.15-.3l-11.17,0a3.78,3.78,0,0,1-2.35-.52,3.42,3.42,0,0,1-1-1.87,20.26,20.26,0,0,1-.33-9.26,7.32,7.32,0,0,1-4-9.62,15.78,15.78,0,0,0,1.37-2.84c.39-1.66-.38-3.35-.69-5a9.2,9.2,0,0,1,1.44-6.74,6,6,0,0,0,1.28-2.33c.16-1.15-.55-2.21-1.13-3.22a15,15,0,0,1-1.16-12c.46-1.4,1.15-2.8,1-4.26a10.49,10.49,0,0,0-.83-2.54,14.87,14.87,0,0,1,.71-12.24,9.6,9.6,0,0,0,1.36-3.12,8,8,0,0,0-.33-2.83,39.61,39.61,0,0,1-.38-15.53c.51-2.89,1.6-6,4.22-7.37a3.77,3.77,0,0,0,1.5-1,3.35,3.35,0,0,0,.35-1.87,8.6,8.6,0,0,1,9.51-7.93c1.52-6.07,9.53-9.43,14.92-6.26a8,8,0,0,1,6.94-5.94c4-.33,6.14,3,9.07,4.56S1242.26,982,1245.53,982.44Z" transform="translate(-58.33 -34)" fill="#cd8809"></path><path d="M1171.71,985a2.5,2.5,0,0,0-1.54-.65c-3.24-.48-6.49.53-9.7,1.16-7.51,1.47-15.26.9-22.9.5a1.14,1.14,0,0,0-.58.07,1,1,0,0,0-.46.52,3.53,3.53,0,0,0,.69,3.7,8.36,8.36,0,0,0,3.3,2.16,29,29,0,0,0,5.83,1.74,45.36,45.36,0,0,0,7.55.65c4.67.1,9.51-.11,13.91-1.82a5.12,5.12,0,0,0,3-2.36C1171.58,989.34,1173,986.42,1171.71,985Z" transform="translate(-58.33 -34)" fill="#fff"></path><path d="M1183,923.51a19.11,19.11,0,0,1,2.51,3.88c2.28,4.68,2.82,10,2.89,15.24a33.11,33.11,0,0,1-2.12,13.23c-1.78,4.33-4.72,7.6-7.19,11.56-2.12,3.38-3.66,7.11-5.94,10.38a25.8,25.8,0,0,1-17.87,11,22.22,22.22,0,0,1-19.33-7.49c-2.29-2.76-3.81-6.07-5.67-9.14a87.94,87.94,0,0,1-5-8.26c-2.1-4.49-2.69-9.52-3.07-14.46a56.8,56.8,0,0,1,.31-14.45,23.53,23.53,0,0,1,6.31-12.79,35.77,35.77,0,0,1,7.23-5c4.35-2.54,8.77-5.1,13.65-6.36s10.36-1.07,14.59,1.66c1.82,1.17,3.41,2.68,5.26,3.79s4.07,1.55,6.2,2.28A16.47,16.47,0,0,1,1183,923.51Z" transform="translate(-58.33 -34)" fill="#cd8809"></path><path d="M1094.88,933.13s21,.61,25,9.14,4,64.83,4,64.83h-90.1s-2.07-59.46,2.16-65.14S1094.88,933.13,1094.88,933.13Z" transform="translate(-58.33 -34)" fill="#68e1fd"></path><path d="M1078.87,850.82c5.33,2.22,8.78,7.39,11.49,12.49,11.72,22,15.47,47.58,14.6,72.51-.28,8-1,16.15-4.09,23.56a7,7,0,0,1-2.29,3.36,7.81,7.81,0,0,1-4.2.91,447,447,0,0,1-47.72-1.53c-5.34-19.54-10.71-39.35-10.81-59.61,0-10.63,1.44-21.5,6.28-31s13.41-17.41,23.8-19.67c6.8-1.48,15.2.34,18.09,6.66" transform="translate(-58.33 -34)" fill="#473f47"></path><path d="M1058.69,1123.67s-3.93-131.9-7-136.39-28.63-13.76-60.35-11.51-41.26,11.51-41.26,11.51l-8.14,136.39Z" transform="translate(-58.33 -34)" fill="#665966"></path><path d="M1034.58,1054s-16,7.24-17.78,12.72-6.29,56.91-6.29,56.91h124.54s-6.84-59.19-11.87-64.22S1061,1047.71,1034.58,1054Z" transform="translate(-58.33 -34)" fill="#473f47"></path><path d="M1091.57,968.43c1,.14,2,0,3.07.15a6.59,6.59,0,0,1,5.33,4.34,12.74,12.74,0,0,0,.81,2.37,16.16,16.16,0,0,0,1.85,2.05,5.31,5.31,0,0,1,.61,5.81,8,8,0,0,1,4.07,6.51c0,1-.11,2.09,0,3.12.3,3.24,2.94,5.71,4.32,8.66a12,12,0,0,1-5.71,15.4,10,10,0,0,1,.32,13.82c2.78,2.26,5.66,4.66,7,8s.61,7.79-2.58,9.42a8,8,0,0,1-6.12,13.43,10.1,10.1,0,0,1-11.43,12.8,45.13,45.13,0,0,1-1,13.21,33.13,33.13,0,0,1-19.25-1.36c-2.55,1.8-5.19,3.64-8.24,4.3s-6.65-.17-8.34-2.79c-1-1.46-1.37-3.47-3-4.19a5.15,5.15,0,0,0-2.14-.3l-11.18,0a3.78,3.78,0,0,1-2.35-.52,3.45,3.45,0,0,1-1-1.87,20.23,20.23,0,0,1-.33-9.25,7.33,7.33,0,0,1-4-9.63,15.78,15.78,0,0,0,1.37-2.84c.4-1.66-.38-3.34-.68-5a9.18,9.18,0,0,1,1.44-6.74,6,6,0,0,0,1.27-2.34c.17-1.15-.55-2.21-1.12-3.22a15,15,0,0,1-1.17-12c.47-1.4,1.15-2.8,1-4.26a10.42,10.42,0,0,0-.83-2.53,14.89,14.89,0,0,1,.71-12.25,9.6,9.6,0,0,0,1.36-3.12,8,8,0,0,0-.33-2.83,39.42,39.42,0,0,1-.37-15.53c.51-2.89,1.59-6,4.21-7.37a3.68,3.68,0,0,0,1.5-1A3.4,3.4,0,0,0,1041,979a8.61,8.61,0,0,1,9.51-7.93c1.53-6.07,9.53-9.42,14.93-6.26a8,8,0,0,1,6.93-5.94c4.05-.33,6.14,3,9.07,4.56S1088.31,968,1091.57,968.43Z" transform="translate(-58.33 -34)" fill="#cd8809"></path><path d="M1017.75,971a2.48,2.48,0,0,0-1.54-.65c-3.24-.47-6.48.53-9.7,1.16-7.51,1.47-15.25.91-22.9.51a1.27,1.27,0,0,0-.58.06,1,1,0,0,0-.46.52,3.55,3.55,0,0,0,.69,3.71,8.41,8.41,0,0,0,3.31,2.15,28.9,28.9,0,0,0,5.82,1.75,46.55,46.55,0,0,0,7.55.65c4.67.09,9.51-.12,13.91-1.83a5.14,5.14,0,0,0,3-2.35C1017.62,975.33,1019,972.41,1017.75,971Z" transform="translate(-58.33 -34)" fill="#fff"></path><path d="M1029,909.5a19,19,0,0,1,2.51,3.88c2.28,4.69,2.82,10,2.89,15.24a33.08,33.08,0,0,1-2.12,13.23c-1.78,4.33-4.72,7.6-7.19,11.56-2.11,3.39-3.66,7.11-5.94,10.38a25.8,25.8,0,0,1-17.87,11A22.2,22.2,0,0,1,982,967.25c-2.29-2.76-3.81-6.07-5.67-9.14a87.94,87.94,0,0,1-5-8.26c-2.1-4.48-2.69-9.51-3.07-14.45a57.34,57.34,0,0,1,.31-14.46,23.59,23.59,0,0,1,6.31-12.79,36.47,36.47,0,0,1,7.23-5c4.35-2.53,8.78-5.1,13.65-6.36s10.36-1.06,14.59,1.67c1.82,1.17,3.41,2.67,5.26,3.79s4.07,1.54,6.2,2.27A16.47,16.47,0,0,1,1029,909.5Z" transform="translate(-58.33 -34)" fill="#cd8809"></path><path d="M990.78,1061.42s21,.61,25,9.13,4,67.13,4,67.13h-90.1s-2.07-61.75,2.16-67.43S990.78,1061.42,990.78,1061.42Z" transform="translate(-58.33 -34)" fill="#68e1fd"></path><path d="M964.28,976.74a17.16,17.16,0,0,1,12.89,1.19c2.13,1.13,3,3.33,4.78,4.54,1.47,1,4-.16,5.22,1.63,1.43,2.09,2.39,5.55,3.52,7.9q2.17,4.54,3.94,9.26a128.12,128.12,0,0,1,5.54,19.37,168.89,168.89,0,0,1,3.07,39.82c-.28,8-1,16.15-4.09,23.57-3.32,8.1-18.68,5.77-25.45,5.66q-17.73-.29-35.4-1.82a329.52,329.52,0,0,1,1.55-78.08c.81-5.75,1.81-11.61,4.61-16.7C948.25,986.19,956,979,964.28,976.74Z" transform="translate(-58.33 -34)" fill="#473f47"></path></g><path d="M608.7,410.72a25.67,25.67,0,0,1-1.62,6.1,18.67,18.67,0,0,1-10.71,9.71,27.21,27.21,0,0,1-14.65.85c.08-4.15.19-8.44,1.92-12.22a24.26,24.26,0,0,1,4.62-6.37c2-2.1,4.26-4.1,7-5a19.44,19.44,0,0,1,5.75-.6c1.8,0,3.61,0,5.41,0,.91,0,3.81-.46,4.46.29s-.41,2.14-.78,2.79A12.07,12.07,0,0,0,608.7,410.72Z" transform="translate(-58.33 -34)" fill="#fc682d"></path><path d="M616.56,417.13c-.1,1.92-.38,3.93.39,5.69.87,2,2.89,3.18,4.87,4.06a12.68,12.68,0,0,0,7.27,1.32,52.31,52.31,0,0,0-1.65-10.51,17.65,17.65,0,0,0-5.61-8.87c-1.17-.92-6.68-4.68-6.87-1.7-.09,1.42.83,3,1.14,4.34A20,20,0,0,1,616.56,417.13Z" transform="translate(-58.33 -34)" fill="#fc682d"></path><path d="M640,468.42l18.09,9.37-11.26,28.15-4.7-.44S636.71,479,640,468.42Z" transform="translate(-58.33 -34)" fill="#68e1fd"></path><polygon points="592.76 461.39 581.28 454.71 583.84 471.5 588.54 471.94 592.76 461.39" fill="url(#linear-gradient-10)"></polygon><circle cx="693.79" cy="361.46" r="8.16" fill="#68e1fd"></circle><circle cx="951.37" cy="319.35" r="8.16" fill="#68e1fd"></circle><polygon points="777.4 459.43 695.38 365.62 697.8 363.5 777.27 454.38 862.24 345.64 907.49 379.27 950.04 317.94 952.69 319.78 908.23 383.84 862.84 350.1 777.4 459.43" fill="#68e1fd"></polygon></svg>